<svg version="1.1" xmlns="http://www.w3.org/2000/svg" style="display: block;" viewBox="0 0 2048 2048" width="1024" height="1024" preserveAspectRatio="none">
<defs>
	<linearGradient id="Gradient1" gradientUnits="userSpaceOnUse" x1="160.051" y1="381.547" x2="168.236" y2="375.232">
		<stop class="stop0" offset="0" stop-opacity="1" stop-color="rgb(51,70,89)"/>
		<stop class="stop1" offset="1" stop-opacity="1" stop-color="rgb(74,94,111)"/>
	</linearGradient>
	<linearGradient id="Gradient2" gradientUnits="userSpaceOnUse" x1="66.5737" y1="498.248" x2="64.4437" y2="493.788">
		<stop class="stop0" offset="0" stop-opacity="1" stop-color="rgb(37,55,79)"/>
		<stop class="stop1" offset="1" stop-opacity="1" stop-color="rgb(66,87,105)"/>
	</linearGradient>
	<linearGradient id="Gradient3" gradientUnits="userSpaceOnUse" x1="542.958" y1="1208.49" x2="552.399" y2="1185.25">
		<stop class="stop0" offset="0" stop-opacity="1" stop-color="rgb(112,111,122)"/>
		<stop class="stop1" offset="1" stop-opacity="1" stop-color="rgb(123,133,152)"/>
	</linearGradient>
	<linearGradient id="Gradient4" gradientUnits="userSpaceOnUse" x1="486.511" y1="1220.29" x2="503.959" y2="1252.09">
		<stop class="stop0" offset="0" stop-opacity="1" stop-color="rgb(119,117,127)"/>
		<stop class="stop1" offset="1" stop-opacity="1" stop-color="rgb(150,147,156)"/>
	</linearGradient>
	<linearGradient id="Gradient5" gradientUnits="userSpaceOnUse" x1="116.313" y1="1866.54" x2="121.688" y2="1848.76">
		<stop class="stop0" offset="0" stop-opacity="1" stop-color="rgb(169,109,104)"/>
		<stop class="stop1" offset="1" stop-opacity="1" stop-color="rgb(202,162,156)"/>
	</linearGradient>
	<linearGradient id="Gradient6" gradientUnits="userSpaceOnUse" x1="173.806" y1="1708.81" x2="251.335" y2="2056.75">
		<stop class="stop0" offset="0" stop-opacity="1" stop-color="rgb(144,96,97)"/>
		<stop class="stop1" offset="1" stop-opacity="1" stop-color="rgb(215,151,135)"/>
	</linearGradient>
	<linearGradient id="Gradient7" gradientUnits="userSpaceOnUse" x1="945.009" y1="1120.25" x2="906.849" y2="1063.97">
		<stop class="stop0" offset="0" stop-opacity="1" stop-color="rgb(29,32,41)"/>
		<stop class="stop1" offset="1" stop-opacity="1" stop-color="rgb(60,65,72)"/>
	</linearGradient>
	<linearGradient id="Gradient8" gradientUnits="userSpaceOnUse" x1="832.569" y1="463.525" x2="893.541" y2="533.148">
		<stop class="stop0" offset="0" stop-opacity="1" stop-color="rgb(55,41,41)"/>
		<stop class="stop1" offset="1" stop-opacity="1" stop-color="rgb(115,84,82)"/>
	</linearGradient>
	<linearGradient id="Gradient9" gradientUnits="userSpaceOnUse" x1="818.39" y1="603.431" x2="839.343" y2="633.11">
		<stop class="stop0" offset="0" stop-opacity="1" stop-color="rgb(69,47,47)"/>
		<stop class="stop1" offset="1" stop-opacity="1" stop-color="rgb(103,72,70)"/>
	</linearGradient>
	<linearGradient id="Gradient10" gradientUnits="userSpaceOnUse" x1="851.818" y1="615.02" x2="880.187" y2="648.137">
		<stop class="stop0" offset="0" stop-opacity="1" stop-color="rgb(101,71,69)"/>
		<stop class="stop1" offset="1" stop-opacity="1" stop-color="rgb(159,118,113)"/>
	</linearGradient>
	<linearGradient id="Gradient11" gradientUnits="userSpaceOnUse" x1="796.848" y1="646.014" x2="823.987" y2="658.516">
		<stop class="stop0" offset="0" stop-opacity="1" stop-color="rgb(40,36,40)"/>
		<stop class="stop1" offset="1" stop-opacity="1" stop-color="rgb(68,54,55)"/>
	</linearGradient>
	<linearGradient id="Gradient12" gradientUnits="userSpaceOnUse" x1="879.143" y1="794.523" x2="905.001" y2="764.177">
		<stop class="stop0" offset="0" stop-opacity="1" stop-color="rgb(99,73,72)"/>
		<stop class="stop1" offset="1" stop-opacity="1" stop-color="rgb(131,97,93)"/>
	</linearGradient>
	<linearGradient id="Gradient13" gradientUnits="userSpaceOnUse" x1="910.328" y1="827.232" x2="934.746" y2="670.158">
		<stop class="stop0" offset="0" stop-opacity="1" stop-color="rgb(109,76,76)"/>
		<stop class="stop1" offset="1" stop-opacity="1" stop-color="rgb(184,148,137)"/>
	</linearGradient>
	<linearGradient id="Gradient14" gradientUnits="userSpaceOnUse" x1="1078.16" y1="812.419" x2="1007.94" y2="644.566">
		<stop class="stop0" offset="0" stop-opacity="1" stop-color="rgb(200,179,168)"/>
		<stop class="stop1" offset="1" stop-opacity="1" stop-color="rgb(236,220,210)"/>
	</linearGradient>
	<linearGradient id="Gradient15" gradientUnits="userSpaceOnUse" x1="1084.8" y1="784.551" x2="1102.04" y2="809.569">
		<stop class="stop0" offset="0" stop-opacity="1" stop-color="rgb(33,25,28)"/>
		<stop class="stop1" offset="1" stop-opacity="1" stop-color="rgb(71,49,46)"/>
	</linearGradient>
	<linearGradient id="Gradient16" gradientUnits="userSpaceOnUse" x1="1055.21" y1="851.515" x2="1090.09" y2="943.993">
		<stop class="stop0" offset="0" stop-opacity="1" stop-color="rgb(129,102,92)"/>
		<stop class="stop1" offset="1" stop-opacity="1" stop-color="rgb(176,149,140)"/>
	</linearGradient>
	<linearGradient id="Gradient17" gradientUnits="userSpaceOnUse" x1="892.439" y1="846.314" x2="1071.74" y2="927.287">
		<stop class="stop0" offset="0" stop-opacity="1" stop-color="rgb(29,17,18)"/>
		<stop class="stop1" offset="1" stop-opacity="1" stop-color="rgb(114,83,79)"/>
	</linearGradient>
	<linearGradient id="Gradient18" gradientUnits="userSpaceOnUse" x1="526.482" y1="1578.48" x2="477.763" y2="1553.13">
		<stop class="stop0" offset="0" stop-opacity="1" stop-color="rgb(51,57,63)"/>
		<stop class="stop1" offset="1" stop-opacity="1" stop-color="rgb(89,99,120)"/>
	</linearGradient>
	<linearGradient id="Gradient19" gradientUnits="userSpaceOnUse" x1="423.593" y1="2003.54" x2="378.295" y2="2007.26">
		<stop class="stop0" offset="0" stop-opacity="1" stop-color="rgb(90,62,61)"/>
		<stop class="stop1" offset="1" stop-opacity="1" stop-color="rgb(125,80,78)"/>
	</linearGradient>
	<linearGradient id="Gradient20" gradientUnits="userSpaceOnUse" x1="667.322" y1="1177.27" x2="631.463" y2="1124.88">
		<stop class="stop0" offset="0" stop-opacity="1" stop-color="rgb(129,152,169)"/>
		<stop class="stop1" offset="1" stop-opacity="1" stop-color="rgb(167,189,202)"/>
	</linearGradient>
	<linearGradient id="Gradient21" gradientUnits="userSpaceOnUse" x1="936.655" y1="205.561" x2="956.188" y2="226.789">
		<stop class="stop0" offset="0" stop-opacity="1" stop-color="rgb(64,75,92)"/>
		<stop class="stop1" offset="1" stop-opacity="1" stop-color="rgb(84,98,113)"/>
	</linearGradient>
	<linearGradient id="Gradient22" gradientUnits="userSpaceOnUse" x1="717.8" y1="354.76" x2="926.02" y2="411.555">
		<stop class="stop0" offset="0" stop-opacity="1" stop-color="rgb(25,36,50)"/>
		<stop class="stop1" offset="1" stop-opacity="1" stop-color="rgb(73,77,85)"/>
	</linearGradient>
	<linearGradient id="Gradient23" gradientUnits="userSpaceOnUse" x1="1091.61" y1="467.92" x2="1282.77" y2="419.916">
		<stop class="stop0" offset="0" stop-opacity="1" stop-color="rgb(104,112,134)"/>
		<stop class="stop1" offset="1" stop-opacity="1" stop-color="rgb(183,181,179)"/>
	</linearGradient>
	<linearGradient id="Gradient24" gradientUnits="userSpaceOnUse" x1="1303.25" y1="409.902" x2="978.06" y2="436.101">
		<stop class="stop0" offset="0" stop-opacity="1" stop-color="rgb(79,89,102)"/>
		<stop class="stop1" offset="1" stop-opacity="1" stop-color="rgb(101,112,126)"/>
	</linearGradient>
	<linearGradient id="Gradient25" gradientUnits="userSpaceOnUse" x1="1888.94" y1="731.702" x2="1871.33" y2="694.344">
		<stop class="stop0" offset="0" stop-opacity="1" stop-color="rgb(73,84,105)"/>
		<stop class="stop1" offset="1" stop-opacity="1" stop-color="rgb(80,105,123)"/>
	</linearGradient>
	<linearGradient id="Gradient26" gradientUnits="userSpaceOnUse" x1="1709.58" y1="1339.75" x2="1682.45" y2="1344.42">
		<stop class="stop0" offset="0" stop-opacity="1" stop-color="rgb(191,169,151)"/>
		<stop class="stop1" offset="1" stop-opacity="1" stop-color="rgb(222,208,210)"/>
	</linearGradient>
	<linearGradient id="Gradient27" gradientUnits="userSpaceOnUse" x1="1432.49" y1="1062.49" x2="1465.69" y2="943.841">
		<stop class="stop0" offset="0" stop-opacity="1" stop-color="rgb(180,187,187)"/>
		<stop class="stop1" offset="1" stop-opacity="1" stop-color="rgb(242,219,210)"/>
	</linearGradient>
	<linearGradient id="Gradient28" gradientUnits="userSpaceOnUse" x1="1794.97" y1="1639.68" x2="1780.03" y2="1648.32">
		<stop class="stop0" offset="0" stop-opacity="1" stop-color="rgb(182,142,137)"/>
		<stop class="stop1" offset="1" stop-opacity="1" stop-color="rgb(222,203,198)"/>
	</linearGradient>
	<linearGradient id="Gradient29" gradientUnits="userSpaceOnUse" x1="1949.88" y1="1559.71" x2="1854.5" y2="2053.94">
		<stop class="stop0" offset="0" stop-opacity="1" stop-color="rgb(156,100,101)"/>
		<stop class="stop1" offset="1" stop-opacity="1" stop-color="rgb(238,184,150)"/>
	</linearGradient>
	<linearGradient id="Gradient30" gradientUnits="userSpaceOnUse" x1="1092.35" y1="1127.11" x2="1080.49" y2="1085.83">
		<stop class="stop0" offset="0" stop-opacity="1" stop-color="rgb(30,36,46)"/>
		<stop class="stop1" offset="1" stop-opacity="1" stop-color="rgb(60,64,71)"/>
	</linearGradient>
	<linearGradient id="Gradient31" gradientUnits="userSpaceOnUse" x1="1649.67" y1="1182.25" x2="1570.65" y2="1178.32">
		<stop class="stop0" offset="0" stop-opacity="1" stop-color="rgb(71,69,79)"/>
		<stop class="stop1" offset="1" stop-opacity="1" stop-color="rgb(93,100,109)"/>
	</linearGradient>
</defs>











































































































































































































































































































































































































































<path transform="translate(0,0)" fill="rgb(134,109,104)" d="M 1087.94 487.48 C 1088.49 484.982 1089.06 482.487 1089.64 479.995 C 1090.78 475.18 1090.86 472.658 1094.92 470.136 C 1100.54 472.74 1102.88 481.927 1105.38 488.163 C 1107.87 495.9 1122.33 525.797 1121.04 530.872 L 1119.99 531.84 C 1121.38 539.79 1133.47 543.891 1137.6 552.814 C 1141.01 560.177 1143.38 587.704 1146.12 592.299 C 1147.63 588.148 1147.68 587.451 1147.29 583.033 L 1146.49 582.077 C 1147.33 584.299 1147.44 584.202 1148.28 585.919 C 1151.67 592.893 1148.87 611.354 1151.29 617.464 C 1152.19 613.206 1152.71 609.542 1153.3 605.227 C 1154.98 616.416 1150.63 623.214 1150.81 630.542 C 1153.57 630.462 1153.25 630.174 1155.94 628.635 C 1153.12 639.117 1146.79 650.519 1147.49 660.923 L 1149.49 663.04 C 1151.3 657.272 1148.48 658.613 1151.02 653.734 C 1150.78 655.631 1150.82 655.794 1151.22 657.809 C 1153.67 657.041 1153.62 656.363 1155.64 654.178 C 1155.27 656.197 1151.17 662.931 1149.83 665.751 L 1150.42 667.809 C 1158.01 669.98 1161.22 665.228 1164.55 659.309 C 1165.92 656.063 1166.41 655.677 1168.52 652.932 L 1170.61 652.532 C 1177.46 659.433 1169.4 678.113 1164.55 684.307 C 1163.11 686.672 1163.33 686.649 1163.31 689.482 L 1164.97 690.474 C 1166.3 689.465 1167.24 688.751 1168.52 687.652 C 1168.13 698.588 1164.18 700.308 1162.45 709.356 L 1163.5 710.725 C 1160.29 718.684 1158.09 721.645 1156.25 730.349 C 1154.06 740.691 1145.85 752.573 1142.87 762.936 C 1139.87 778.06 1134.69 798.135 1132.27 812.814 C 1132.28 832.588 1133.12 839.336 1126.37 858.356 L 1127.12 857.119 C 1123.5 866.307 1120.5 869.601 1113.63 876.76 C 1110.1 880.125 1108.4 884.771 1105.82 887.308 C 1094.93 901.875 1084.58 916.83 1074.32 931.843 C 1069.67 938.649 1062.44 947.93 1058.34 954.677 C 1048.65 969.383 1000.66 1028.93 988.175 1038.62 C 982.814 1042.86 976.521 1045.77 969.814 1047.11 C 952.616 1050.6 928.926 1045.2 912.257 1040.41 C 899.328 1037.27 891.755 1028.72 885.49 1017.62 C 885.484 1014.1 885.062 1008.82 885.79 1005.36 C 889.827 986.338 919.402 967.95 919.609 948.619 C 919.961 915.8 908.349 878.508 900.181 846.698 C 897.124 834.79 892.111 823.205 889.274 811.584 L 888.846 809.79 C 884.533 804.257 869.331 788.998 863.593 782.753 C 835.796 752.503 824.52 724.732 815.455 685.364 C 811.83 679.794 797.649 638.57 799.697 633.121 C 806.63 638.15 811.536 649.652 818.507 654.851 C 819.867 656.387 824.497 660.966 825.163 661.829 L 828.355 662.495 C 825.199 658.302 825.656 652.909 825.62 647.812 L 825.992 648.121 C 826.54 643.184 824.665 639.265 823.034 634.456 C 820.413 628.987 819.525 624.47 818.044 618.627 C 815.717 611.532 816.688 608.295 817.404 600.829 C 821.45 599.793 821.626 602.471 827.247 602.1 L 829.252 599.407 C 825.71 597.008 825.644 597.038 822.891 593.831 C 819.49 590.067 820.037 583.422 819.766 578.063 C 822.135 569.731 817.98 563.409 825.252 556.558 C 826.97 555.141 826.53 555.049 827.491 552.53 C 834.418 552.065 837.267 551.67 844.128 552.816 C 856.144 553.902 875.283 558.509 887.255 561.236 C 896.276 562.022 911.605 565.707 918.611 571.44 C 921.621 568.444 921.805 566.758 926.193 567.062 C 936.389 567.767 937.966 578.669 943.965 584.575 C 944.349 590.517 944.618 596.365 945.532 602.251 C 946.442 606.551 944.609 610.872 943.787 615.506 C 939.413 622.414 937.905 629.578 933.587 637.148 C 929.824 643.745 923.795 647.166 921.422 651.57 L 922.454 652.707 L 924.913 652.513 L 925.046 650.371 C 936.301 641.765 941.309 634.896 951.221 625.795 C 955.561 632.676 949.054 634.705 950.38 639.666 C 957.044 635.39 985.454 595.817 991.078 587.53 C 992.343 589.002 992.494 589.486 993.298 591.244 L 994.329 590.392 C 994.87 587.79 994.702 587.764 996.22 585.644 C 997.989 587.773 1001.83 613.491 1010.15 616.753 C 1010.32 614.981 999.18 589.638 999.385 582.664 L 1000.03 582.889 C 1001.3 588.955 1001.32 591.527 1005.99 595.643 L 1007.56 594.93 C 1009.88 589.495 1009.59 585.04 1009.72 579.191 L 1010.65 576.642 C 1018.71 571.374 1022.04 565.305 1028.01 557.801 C 1029.99 556.473 1029.33 556.934 1031.95 556.535 C 1040.9 559.877 1047.4 562.323 1055.96 556.489 C 1056.31 555.412 1056.01 556.148 1057.33 554.529 C 1058.58 556.378 1057.85 555.673 1059.4 556.77 C 1070.05 551.466 1064.65 548.171 1066.19 541.644 L 1064.32 539.701 L 1064.27 538.665 L 1066.08 537.312 C 1068.45 538.497 1067.73 537.921 1069.35 539.931 C 1075.93 523.698 1085.02 505.054 1087.94 487.48 z"/>
<path transform="translate(0,0)" fill="url(#Gradient17)" d="M 1162.45 709.356 L 1163.5 710.725 C 1160.29 718.684 1158.09 721.645 1156.25 730.349 C 1154.06 740.691 1145.85 752.573 1142.87 762.936 C 1139.87 778.06 1134.69 798.135 1132.27 812.814 C 1132.28 832.588 1133.12 839.336 1126.37 858.356 L 1127.12 857.119 C 1123.5 866.307 1120.5 869.601 1113.63 876.76 C 1110.1 880.125 1108.4 884.771 1105.82 887.308 C 1094.93 901.875 1084.58 916.83 1074.32 931.843 C 1069.67 938.649 1062.44 947.93 1058.34 954.677 C 1048.65 969.383 1000.66 1028.93 988.175 1038.62 C 982.814 1042.86 976.521 1045.77 969.814 1047.11 C 952.616 1050.6 928.926 1045.2 912.257 1040.41 C 899.328 1037.27 891.755 1028.72 885.49 1017.62 C 885.484 1014.1 885.062 1008.82 885.79 1005.36 C 889.827 986.338 919.402 967.95 919.609 948.619 C 919.961 915.8 908.349 878.508 900.181 846.698 C 897.124 834.79 892.111 823.205 889.274 811.584 L 888.846 809.79 C 892.07 812.702 926.605 841.642 927.107 842.4 C 931.517 845.051 935.865 847.805 940.146 850.66 C 961.145 866.987 993.241 870.017 1017.04 858.189 C 1021.06 856.168 1023.7 855.324 1028.14 856.835 C 1031.45 855.133 1034.85 853.903 1037.05 851.016 C 1035.56 849.218 1036.12 850.14 1035.27 848.318 C 1080.23 813.489 1127.64 776.845 1154.79 725.757 C 1157.65 720.372 1158.8 714.334 1162.45 709.356 z"/>
<path transform="translate(0,0)" fill="url(#Gradient16)" d="M 1122.33 817.666 C 1126.47 817.408 1128.83 815.198 1132.27 812.814 C 1132.28 832.588 1133.12 839.336 1126.37 858.356 L 1127.12 857.119 C 1123.5 866.307 1120.5 869.601 1113.63 876.76 C 1110.1 880.125 1108.4 884.771 1105.82 887.308 C 1094.93 901.875 1084.58 916.83 1074.32 931.843 C 1069.67 938.649 1062.44 947.93 1058.34 954.677 C 1049.74 956.796 1051.52 959.712 1045.28 962.734 C 1042.92 960.889 1042.64 959.454 1041.46 956.676 L 1041.02 955.594 L 1041.09 956.488 C 1037.7 948.966 1039.86 928.244 1040.53 919.379 C 1040.88 923.603 1040.9 924.933 1044.73 926.339 L 1046.97 925.144 C 1050.99 918.348 1061.97 900.844 1062.67 893.792 C 1068.16 882.002 1077.54 867.174 1081.86 855.887 C 1084.58 850.157 1088.7 844.568 1093.15 840.053 C 1096.23 833.437 1106.14 823.088 1113.36 821.208 L 1115.03 823 L 1118.01 821.988 C 1121.94 817.003 1116.99 821.513 1118.75 817.131 L 1122.33 817.666 z"/>
<path transform="translate(0,0)" fill="rgb(95,64,63)" d="M 1122.33 817.666 C 1126.47 817.408 1128.83 815.198 1132.27 812.814 C 1132.28 832.588 1133.12 839.336 1126.37 858.356 L 1127.12 857.119 C 1123.5 866.307 1120.5 869.601 1113.63 876.76 C 1116.21 867.984 1117.62 830.649 1115.03 823 L 1118.01 821.988 C 1121.94 817.003 1116.99 821.513 1118.75 817.131 L 1122.33 817.666 z"/>
<path transform="translate(0,0)" fill="rgb(109,83,83)" d="M 1093.15 840.053 C 1096.23 833.437 1106.14 823.088 1113.36 821.208 L 1115.03 823 C 1117.62 830.649 1116.21 867.984 1113.63 876.76 C 1110.1 880.125 1108.4 884.771 1105.82 887.308 C 1105.01 882.699 1102.08 868.6 1103.39 864.747 C 1105.59 858.269 1106.72 851.401 1105.77 844.331 C 1105.29 840.732 1104.17 839.118 1101.14 837.051 C 1096.98 836.477 1097.82 837.074 1093.15 840.053 z"/>
<path transform="translate(0,0)" fill="url(#Gradient15)" d="M 1162.45 709.356 L 1163.5 710.725 C 1160.29 718.684 1158.09 721.645 1156.25 730.349 C 1154.06 740.691 1145.85 752.573 1142.87 762.936 C 1139.87 778.06 1134.69 798.135 1132.27 812.814 C 1128.83 815.198 1126.47 817.408 1122.33 817.666 C 1123.07 808.485 1129.04 799.067 1127.15 790.758 C 1126.75 789.018 1128.03 788.517 1129.09 787.447 C 1130.68 788.917 1129.98 788.211 1130.59 790.963 C 1131.8 777.714 1134.75 783.252 1137.13 775.528 L 1136.47 773.519 C 1132.77 773.563 1126.4 781.725 1124.63 784.903 L 1125.56 786.038 C 1122.09 792.818 1103.51 801.679 1101.61 808.723 L 1109.23 807.531 L 1109.19 808.526 C 1105.02 810.275 1103.17 810.704 1098.73 811.799 C 1083.36 830.025 1084.39 827.893 1062.49 836.431 C 1058.05 838.159 1029.07 859.494 1025.94 863.206 C 1030.1 864.352 1031.85 861.988 1035.57 863.378 C 1018.43 874.314 991.783 874.89 972.354 872.274 C 988.456 871.225 1015.3 867.395 1028.14 856.835 C 1031.45 855.133 1034.85 853.903 1037.05 851.016 C 1035.56 849.218 1036.12 850.14 1035.27 848.318 C 1080.23 813.489 1127.64 776.845 1154.79 725.757 C 1157.65 720.372 1158.8 714.334 1162.45 709.356 z"/>
<path transform="translate(0,0)" fill="rgb(44,32,33)" d="M 888.846 809.79 C 892.07 812.702 926.605 841.642 927.107 842.4 C 921.789 842.261 912.046 833.326 907.79 829.538 C 909.476 834.729 922.404 849.811 922.178 854.764 C 915.448 848.037 908.634 837.574 900.536 833.514 L 899.257 834.13 C 899.123 836.498 900.484 845.859 901.42 847.652 C 908.234 860.712 908.16 876.562 912.635 889.507 C 921.708 915.759 930.326 941.051 920.936 968.99 C 915.71 984.538 902.142 1000.32 899.311 1017.88 C 898.279 1022.47 896.511 1024.1 896.743 1029.6 C 901.735 1033.88 909.594 1036.94 912.257 1040.41 C 899.328 1037.27 891.755 1028.72 885.49 1017.62 C 885.484 1014.1 885.062 1008.82 885.79 1005.36 C 889.827 986.338 919.402 967.95 919.609 948.619 C 919.961 915.8 908.349 878.508 900.181 846.698 C 897.124 834.79 892.111 823.205 889.274 811.584 L 888.846 809.79 z"/>
<path transform="translate(0,0)" fill="rgb(128,100,102)" d="M 1062.67 893.792 C 1059.44 897.677 1056.22 903.013 1052.2 904.999 C 1051.16 904.476 1050.11 903.953 1049.07 903.43 C 1038.73 910.129 1030.12 927.871 1024.8 931.058 C 1030.95 918.748 1044.45 904.821 1053.12 893.546 C 1060.4 884.08 1072.87 861.884 1081.86 855.887 C 1077.54 867.174 1068.16 882.002 1062.67 893.792 z"/>
<path transform="translate(0,0)" fill="url(#Gradient14)" d="M 982.2 655.541 L 984 654.536 C 987.793 655.767 990.309 659.433 992.687 662.559 L 992.009 657.724 L 992.908 657.033 C 999.433 660.97 1001.96 669.398 1008.32 670.491 C 1009.69 664.921 1007.98 661.494 1010.3 658.688 C 1014.3 662.016 1013.96 664.469 1017.4 665.873 C 1015.96 661.448 1011.96 659.969 1012.69 654.385 C 1013.51 648.179 1017.26 646.703 1022.58 645.866 C 1031.96 648.948 1026.67 661.506 1042 656.849 C 1051.59 659.192 1060.1 663.211 1068.74 665.786 C 1076.67 668.147 1097.08 663.904 1104.89 660.676 C 1105.7 662.875 1105.64 662.989 1105.85 665.35 C 1110.8 665.785 1112.33 664.557 1115.37 666.593 C 1115.18 668.948 1115.32 668.298 1114.64 670.419 L 1116.06 669.432 C 1116.28 666.806 1116.32 665.164 1117.05 662.588 C 1119.52 664.358 1118.54 663.248 1119.53 666.357 C 1118.38 673.668 1111.16 680.171 1105.76 684.755 L 1106.82 685.405 C 1109.3 684.006 1111.57 683.683 1114.34 684.362 C 1120.12 685.774 1119.65 681.132 1125.22 680.957 L 1126.84 682.902 C 1124.96 689.066 1118.94 711.054 1114.76 714.562 L 1111.05 717.697 C 1109.85 718.723 1110.23 718.232 1109.61 719.48 C 1113.39 718.023 1112.55 717.665 1115.74 718.499 C 1117.75 722.179 1117.77 721.976 1118.14 726.096 L 1118.24 725.555 L 1117.64 726.284 C 1118.35 722.644 1118.3 722.794 1120.08 719.537 C 1125.63 721.801 1118.5 740.408 1115.01 743.608 L 1113.75 743.504 L 1113.4 740.37 C 1110.99 741.542 1095.82 759.692 1093.2 763.169 L 1093.09 764.796 L 1092.14 764.706 L 1092.49 765.166 C 1097.79 760.721 1108.36 747.744 1112.17 746.921 L 1113.92 747.43 C 1112.28 751.321 1091.68 770.259 1087.85 774.056 C 1084.62 780.28 1070.35 788.252 1063.86 791.083 L 1062.65 791.5 L 1066.01 791.397 L 1066.17 792.317 C 1058.66 800.652 1051.66 804.371 1041.65 809.346 C 1038.21 811.058 1038.37 809.744 1034.56 812.283 C 1034.86 815.097 1038.36 817.796 1040.4 822.095 C 1037.91 826.618 1020.04 841.852 1015.05 842.455 C 1008.53 843.241 994.193 842.9 988.711 838.584 L 990.32 837.777 C 987.726 835.895 987.969 836.597 986.492 834.107 L 987.752 834.165 L 988.545 834.672 L 989.363 834.172 C 986.907 827.14 970.415 820.667 974.949 811.021 C 990.552 798.29 1021.08 821.475 1034.84 822.098 L 1034.45 820.784 C 1032.09 819.671 1029.74 818.514 1027.42 817.312 C 1024.73 815.891 1023.1 814.862 1022.18 811.912 C 1024.33 809.853 1024.65 809.963 1025.36 807.172 C 1022.95 799.358 1020.03 801.842 1015.5 794.931 L 1016.35 794.367 L 1022.35 796.92 L 1023.41 795.5 L 1021.82 793.598 L 1023.75 793.209 L 1024.35 792.204 C 1018.23 784.955 976.961 782.968 974.669 774.394 C 981.156 771.948 979.716 771.616 987.513 769.925 L 989.704 770.163 C 994.553 767.527 995.802 766.415 1001.26 766.154 C 1010.08 768.121 1027.83 773.227 1035.36 769.105 L 1035.66 767.266 L 1032.31 763.174 C 1029.75 760.59 1022.52 763.189 1019.66 762.383 C 1006.9 758.78 1002.35 755.11 988.753 753.545 L 993.174 752.695 C 992.119 750.934 985.948 753.166 980.529 750.326 C 976.532 744.697 981.968 735.628 982.889 727.911 C 987.734 716.809 1001.61 718.613 1010.03 709.857 C 1016 703.659 1014.91 697.944 1014.65 689.794 L 1013.73 689.692 C 1013.94 693.997 1015.16 705.082 1010.31 706.474 C 1007.17 704.848 1007.4 704.904 1005.24 702.065 C 1006.82 697.84 1008.23 700.955 1011.03 696.979 L 1009.97 696.22 C 1001.58 700.4 1001.93 695.735 995.93 690.659 C 995.023 689.893 988.428 689.089 986.618 688.847 C 983.359 684.198 985.83 677.093 980.601 675.061 C 985.414 682.941 986.136 694.54 974.441 691.48 L 972.339 689.498 C 968.192 685.059 970.288 667.808 972.349 662.698 C 974.752 663.041 976.561 663.259 978.98 663.429 C 981.641 661.17 981.139 659.806 982.2 655.541 z"/>
<path transform="translate(0,0)" fill="rgb(215,171,159)" d="M 1063.86 791.083 C 1064.86 788.338 1067.7 784.55 1070.42 783.232 L 1072.2 784.332 C 1077.07 776.315 1076.15 771.011 1087.85 774.056 C 1084.62 780.28 1070.35 788.252 1063.86 791.083 z"/>
<path transform="translate(0,0)" fill="rgb(224,197,186)" d="M 987.513 769.925 L 989.704 770.163 C 993.233 769.948 1003.54 769.923 1006.25 771.871 C 1001.67 776.249 992.743 776.811 987.755 772.668 L 987.513 769.925 z"/>
<path transform="translate(0,0)" fill="rgb(218,205,197)" d="M 972.339 689.498 C 974.423 685.734 973.517 685.886 976.571 684.818 C 978.278 686.996 977.788 685.737 977.431 688.905 C 975.824 690.733 976.454 690.431 974.441 691.48 L 972.339 689.498 z"/>
<path transform="translate(0,0)" fill="url(#Gradient13)" d="M 855.732 690.29 C 857.926 690.827 857.197 690.428 858.965 691.748 C 860.605 689.481 860.373 690.707 860.178 688.128 L 858.555 688.339 C 858.433 684.97 857.941 678.627 858.657 675.606 C 869.768 676.521 874.966 675.151 885.802 672.488 C 891.396 671.114 904.066 666.299 908.7 666.601 C 909.562 666.657 925.61 683.637 923.909 690.707 C 921.282 701.624 919.407 708.112 925.429 717.975 L 928.249 717.334 L 928.104 717.544 C 928.515 715.433 929.186 709.688 930.449 708.748 L 931.197 709.867 C 933.528 713.285 945.872 729.207 950.064 729.091 C 953.476 728.996 952.618 727.722 958.336 730.21 L 958.108 730.996 L 955.358 731.477 C 954.001 734.895 949.689 738.965 946.502 740.907 L 946.623 742.298 C 951.116 740.157 961.973 734.646 966.469 733.785 C 971.083 735.417 967.034 736.104 973.528 736.554 C 977.326 735.345 980.162 731.105 982.889 727.911 C 981.968 735.628 976.532 744.697 980.529 750.326 C 985.948 753.166 992.119 750.934 993.174 752.695 L 988.753 753.545 C 1002.35 755.11 1006.9 758.78 1019.66 762.383 C 1022.52 763.189 1029.75 760.59 1032.31 763.174 L 1035.66 767.266 L 1035.36 769.105 C 1027.83 773.227 1010.08 768.121 1001.26 766.154 C 996.613 764.715 983.203 766.468 977.637 767.014 C 972.31 771.04 959.347 771.635 956.521 773.971 C 957.123 779.322 962.447 782.806 966.726 786.588 C 970.223 786.703 972.93 786.928 976.413 787.29 C 982.169 787.352 993.012 785.944 992.785 793.746 C 991.493 795.49 991.609 795.386 989.633 796.289 L 991.496 797.893 C 985.932 807.899 958.433 802.441 951.154 814.226 C 947.561 820.044 942.746 827.057 941.686 833.885 C 936.192 823.078 944.321 797.524 940.14 795.646 C 917.142 785.317 889.458 781.461 872.87 759.795 C 867.983 753.411 853.877 733.388 854.616 725.763 L 856.056 725.353 C 857.315 726.961 858.235 728.039 859.617 729.542 L 860.59 728.999 C 853.575 719.187 850.538 717.752 858.414 706.905 C 865.908 696.584 855.62 699.266 855.732 690.29 z"/>
<path transform="translate(0,0)" fill="rgb(95,64,63)" d="M 977.637 767.014 C 972.309 766.712 967.311 766.348 961.953 766.719 C 953.669 767.294 925.31 776.695 921.527 766.426 L 922.549 764.74 C 927.353 762.035 933.586 761.693 937.07 760.134 C 952.987 753.013 957.739 758.464 972.557 763.472 C 975.436 764.445 989.177 762.093 993.786 761.572 C 1007.38 760.037 1018.83 772.433 1032.31 763.174 L 1035.66 767.266 L 1035.36 769.105 C 1027.83 773.227 1010.08 768.121 1001.26 766.154 C 996.613 764.715 983.203 766.468 977.637 767.014 z"/>
<path transform="translate(0,0)" fill="rgb(224,197,186)" d="M 966.469 733.785 C 971.083 735.417 967.034 736.104 973.528 736.554 C 977.326 735.345 980.162 731.105 982.889 727.911 C 981.968 735.628 976.532 744.697 980.529 750.326 C 985.948 753.166 992.119 750.934 993.174 752.695 L 988.753 753.545 C 983.9 753.068 977.314 753.97 972.315 754.437 C 967.973 752.542 963.635 750.117 959.431 747.891 C 962.255 744.483 964.622 738.051 966.469 733.785 z"/>
<path transform="translate(0,0)" fill="rgb(121,86,85)" d="M 976.413 787.29 C 978.91 787.967 978.778 787.311 981.631 788.575 C 979.548 789.85 975.435 788.61 972.236 788.251 L 970.404 790.961 C 967.006 792.058 968.767 791.921 964.935 790.818 L 964.557 788.53 C 962.754 786.984 962.533 786.831 960.401 785.972 L 958.714 785.307 C 961.819 785.34 963.739 785.91 966.726 786.588 C 970.223 786.703 972.93 786.928 976.413 787.29 z"/>
<path transform="translate(0,0)" fill="rgb(165,118,109)" d="M 872.595 714.356 C 874.191 715.925 876.544 719.574 878.467 721.471 C 882.059 725.015 885.469 727.974 888.866 731.734 L 888.368 733.086 C 886.158 733.537 886.886 733.117 885.223 734.454 L 888.111 736.944 C 888.505 737.183 888.25 736.952 888.837 738.063 C 885.138 739.233 886.746 739.471 883.786 738.112 C 878.42 729.422 874.797 724.491 872.595 714.356 z"/>
<path transform="translate(0,0)" fill="url(#Gradient12)" d="M 815.455 685.364 C 811.83 679.794 797.649 638.57 799.697 633.121 C 806.63 638.15 811.536 649.652 818.507 654.851 C 819.867 656.387 824.497 660.966 825.163 661.829 L 828.355 662.495 C 825.199 658.302 825.656 652.909 825.62 647.812 L 825.992 648.121 C 826.54 643.184 824.665 639.265 823.034 634.456 C 829.302 637.134 833.977 651.081 834.738 657.376 C 832.455 660.964 832.722 659.156 833.271 662.86 C 835.912 664.654 838.602 666.374 841.339 668.017 L 841.033 669.299 L 838.836 670.494 C 838.936 676.146 843.692 684.403 845.178 690.045 C 850.763 687.946 848.974 689.32 852.548 685.135 C 853.578 686.872 854.64 688.591 855.732 690.29 C 855.62 699.266 865.908 696.584 858.414 706.905 C 850.538 717.752 853.575 719.187 860.59 728.999 L 859.617 729.542 C 858.235 728.039 857.315 726.961 856.056 725.353 L 854.616 725.763 C 853.877 733.388 867.983 753.411 872.87 759.795 C 889.458 781.461 917.142 785.317 940.14 795.646 C 944.321 797.524 936.192 823.078 941.686 833.885 C 942.452 839.571 944.416 844.884 950.15 848.364 C 975.413 863.695 1007.75 865.942 1030.89 845.367 C 1032.41 844.015 1040.58 838.44 1042.51 838.278 L 1041.05 839.472 C 1039.67 840.612 1037.77 842.824 1037.33 843.18 C 1031.12 848.176 1023.26 852.65 1017.04 858.189 C 993.241 870.017 961.145 866.987 940.146 850.66 C 935.865 847.805 931.517 845.051 927.107 842.4 C 926.605 841.642 892.07 812.702 888.846 809.79 C 884.533 804.257 869.331 788.998 863.593 782.753 C 835.796 752.503 824.52 724.732 815.455 685.364 z"/>
<path transform="translate(0,0)" fill="rgb(95,64,63)" d="M 815.455 685.364 C 811.83 679.794 797.649 638.57 799.697 633.121 C 806.63 638.15 811.536 649.652 818.507 654.851 C 819.867 656.387 824.497 660.966 825.163 661.829 L 828.355 662.495 C 825.199 658.302 825.656 652.909 825.62 647.812 L 825.992 648.121 C 826.54 643.184 824.665 639.265 823.034 634.456 C 829.302 637.134 833.977 651.081 834.738 657.376 C 832.455 660.964 832.722 659.156 833.271 662.86 C 835.912 664.654 838.602 666.374 841.339 668.017 L 841.033 669.299 L 838.836 670.494 C 838.936 676.146 843.692 684.403 845.178 690.045 C 845.894 699.917 845.521 708.946 846.797 718.968 C 847.52 724.65 852.7 737.471 851.143 741.459 L 847.643 738.3 C 848.085 743.46 853.678 744.921 853.949 745.962 C 861.738 775.869 872.129 782.815 896.054 802.535 C 894.035 803.504 894.764 803.168 892.267 803.136 L 891.803 803.644 C 896.367 808.107 904.137 817.194 909.981 817.263 C 908.083 815.427 906.343 813.834 904.384 812.083 L 904.766 810.38 C 907.85 813.056 938.484 847.578 940.146 850.66 C 935.865 847.805 931.517 845.051 927.107 842.4 C 926.605 841.642 892.07 812.702 888.846 809.79 C 884.533 804.257 869.331 788.998 863.593 782.753 C 835.796 752.503 824.52 724.732 815.455 685.364 z"/>
<path transform="translate(0,0)" fill="url(#Gradient11)" d="M 815.455 685.364 C 811.83 679.794 797.649 638.57 799.697 633.121 C 806.63 638.15 811.536 649.652 818.507 654.851 C 819.867 656.387 824.497 660.966 825.163 661.829 C 824.367 668.712 827.953 662.258 826.939 672.88 L 826.402 673.219 C 825.301 669.214 819.966 665.342 816.202 663.789 L 813.697 663.897 L 812.981 665.259 C 815.611 673.679 817.69 677.07 815.455 685.364 z"/>
<path transform="translate(0,0)" fill="rgb(81,60,59)" d="M 827.491 552.53 C 834.418 552.065 837.267 551.67 844.128 552.816 C 856.144 553.902 875.283 558.509 887.255 561.236 C 896.276 562.022 911.605 565.707 918.611 571.44 C 921.621 568.444 921.805 566.758 926.193 567.062 C 936.389 567.767 937.966 578.669 943.965 584.575 C 944.349 590.517 944.618 596.365 945.532 602.251 C 946.442 606.551 944.609 610.872 943.787 615.506 C 942.797 610.839 942.199 610.67 938.474 607.28 L 938.603 608.741 L 930.231 607.403 C 928.793 602.677 926.936 600.669 923.195 597.747 L 918.054 593.437 C 915.252 592.309 910.108 589.243 906.129 587.523 C 901.38 585.514 898.523 585.559 893.469 585.14 L 893.106 584.286 L 886.488 583.443 L 875.352 581.931 C 868.079 582.157 861.746 582.57 854.492 583.199 C 851.709 584.275 849.59 585.321 846.614 585.558 C 841.953 587.162 837.274 588.713 832.579 590.212 L 830.277 591.366 C 826.934 592.86 826.599 593.142 822.891 593.831 C 819.49 590.067 820.037 583.422 819.766 578.063 C 822.135 569.731 817.98 563.409 825.252 556.558 C 826.97 555.141 826.53 555.049 827.491 552.53 z"/>
<path transform="translate(0,0)" fill="rgb(71,63,68)" d="M 887.255 561.236 C 896.276 562.022 911.605 565.707 918.611 571.44 C 921.621 568.444 921.805 566.758 926.193 567.062 C 936.389 567.767 937.966 578.669 943.965 584.575 C 944.349 590.517 944.618 596.365 945.532 602.251 C 946.442 606.551 944.609 610.872 943.787 615.506 C 942.797 610.839 942.199 610.67 938.474 607.28 L 938.603 608.741 L 930.231 607.403 C 928.793 602.677 926.936 600.669 923.195 597.747 L 918.054 593.437 C 915.252 592.309 910.108 589.243 906.129 587.523 C 901.38 585.514 898.523 585.559 893.469 585.14 L 893.106 584.286 C 896.416 583.856 895.167 584.621 897.381 582.725 C 894.917 580.788 893.459 580.197 890.697 578.842 C 893.285 578.44 895.665 578.436 897.686 577.133 L 891.359 576.758 L 890.831 575.561 L 890.179 575.696 L 890.026 576.637 L 888.885 576.012 C 893.978 574.65 895.211 574.596 899.173 571.226 L 904.323 573.353 C 900.569 569.149 892.307 563.911 887.255 561.236 z"/>
<path transform="translate(0,0)" fill="rgb(44,32,33)" d="M 887.255 561.236 C 896.276 562.022 911.605 565.707 918.611 571.44 L 920.506 573.241 C 926.478 569.541 930.64 571.875 934.861 576.431 C 928.457 577.354 928.027 573.805 923.696 574.89 C 923.365 576.511 923.046 577.858 922.625 579.459 L 920.2 580.293 C 915.521 579.727 908.811 575.669 904.323 573.353 C 900.569 569.149 892.307 563.911 887.255 561.236 z"/>
<path transform="translate(0,0)" fill="rgb(43,44,51)" d="M 918.611 571.44 C 921.621 568.444 921.805 566.758 926.193 567.062 C 936.389 567.767 937.966 578.669 943.965 584.575 C 944.349 590.517 944.618 596.365 945.532 602.251 C 939.797 597.077 941.544 598.056 939.975 591.174 L 939.65 589.814 C 938.797 584.108 937.293 581.545 934.861 576.431 C 930.64 571.875 926.478 569.541 920.506 573.241 L 918.611 571.44 z"/>
<path transform="translate(0,0)" fill="rgb(44,32,33)" d="M 939.65 589.814 L 939.975 591.174 C 941.544 598.056 939.797 597.077 945.532 602.251 C 946.442 606.551 944.609 610.872 943.787 615.506 C 942.797 610.839 942.199 610.67 938.474 607.28 C 939.207 602.532 939.16 595.125 939.65 589.814 z"/>
<path transform="translate(0,0)" fill="rgb(109,83,83)" d="M 845.37 557.266 C 855.962 559.073 879.161 563.643 888.033 569.045 C 885.649 571.101 883.797 572.598 881.707 574.997 C 881.678 578.044 884.229 581.354 886.488 583.443 L 875.352 581.931 C 868.079 582.157 861.746 582.57 854.492 583.199 L 853.354 582.316 L 852.623 580.784 C 853.718 579.883 854.81 579.161 856.07 578.509 L 855.022 576.916 C 849.487 577.167 849.362 577.996 845.57 575.112 C 843.132 570.784 844.825 562.669 845.37 557.266 z"/>
<path transform="translate(0,0)" fill="rgb(95,64,63)" d="M 875.352 581.931 C 874.676 579.798 873.987 578.678 872.773 576.796 C 874.298 569.685 881.734 569.449 888.033 569.045 C 885.649 571.101 883.797 572.598 881.707 574.997 C 881.678 578.044 884.229 581.354 886.488 583.443 L 875.352 581.931 z"/>
<path transform="translate(0,0)" fill="rgb(95,64,63)" d="M 838.628 558.407 L 845.37 557.266 C 844.825 562.669 843.132 570.784 845.57 575.112 C 849.362 577.996 849.487 577.167 855.022 576.916 L 856.07 578.509 C 854.81 579.161 853.718 579.883 852.623 580.784 L 853.354 582.316 C 847.859 582.624 844.555 583.244 839.235 584.227 C 839.37 583.303 839.226 583.837 840.002 582.592 L 840.687 581.517 L 837.698 580.458 L 833.447 579.006 C 835.681 569.429 830.648 568.638 832.123 561.533 C 835.018 558.559 833.976 559.491 838.628 558.407 z"/>
<path transform="translate(0,0)" fill="rgb(89,79,86)" d="M 855.022 576.916 L 856.07 578.509 C 854.81 579.161 853.718 579.883 852.623 580.784 L 853.354 582.316 C 847.859 582.624 844.555 583.244 839.235 584.227 C 839.37 583.303 839.226 583.837 840.002 582.592 L 840.687 581.517 L 837.698 580.458 C 840.535 579.923 842.957 579.267 845.743 578.555 L 855.022 576.916 z"/>
<path transform="translate(0,0)" fill="rgb(71,63,68)" d="M 819.766 578.063 C 822.135 569.731 817.98 563.409 825.252 556.558 C 825.547 563.616 824.192 571.571 824.443 580.525 C 829.311 582.927 833.938 586.419 839.235 584.227 C 844.555 583.244 847.859 582.624 853.354 582.316 L 854.492 583.199 C 851.709 584.275 849.59 585.321 846.614 585.558 C 841.953 587.162 837.274 588.713 832.579 590.212 L 830.277 591.366 C 826.934 592.86 826.599 593.142 822.891 593.831 C 819.49 590.067 820.037 583.422 819.766 578.063 z"/>
<path transform="translate(0,0)" fill="rgb(95,64,63)" d="M 830.277 591.366 C 827.448 590.153 826.221 589.165 825.587 586.388 L 827.231 585.374 C 830.89 586.927 829.836 586.593 832.579 590.212 L 830.277 591.366 z"/>
<path transform="translate(0,0)" fill="rgb(95,64,63)" d="M 827.491 552.53 C 834.418 552.065 837.267 551.67 844.128 552.816 C 838.686 553.335 831.833 553.146 828.347 557.087 C 828.363 563.375 830.809 571.496 831.947 578.273 L 833.447 579.006 L 837.698 580.458 L 840.687 581.517 L 840.002 582.592 C 839.226 583.837 839.37 583.303 839.235 584.227 C 833.938 586.419 829.311 582.927 824.443 580.525 C 824.192 571.571 825.547 563.616 825.252 556.558 C 826.97 555.141 826.53 555.049 827.491 552.53 z"/>
<path transform="translate(0,0)" fill="rgb(81,60,59)" d="M 1087.94 487.48 C 1088.49 484.982 1089.06 482.487 1089.64 479.995 C 1090.78 475.18 1090.86 472.658 1094.92 470.136 C 1100.54 472.74 1102.88 481.927 1105.38 488.163 C 1107.87 495.9 1122.33 525.797 1121.04 530.872 L 1119.99 531.84 C 1112.38 531.461 1102.74 537.033 1092.54 538.864 C 1083.64 540.459 1078.5 540.671 1070.06 541.792 L 1069.35 539.931 C 1075.93 523.698 1085.02 505.054 1087.94 487.48 z"/>
<path transform="translate(0,0)" fill="rgb(71,63,68)" d="M 1087.94 487.48 C 1088.49 484.982 1089.06 482.487 1089.64 479.995 C 1090.78 475.18 1090.86 472.658 1094.92 470.136 C 1100.54 472.74 1102.88 481.927 1105.38 488.163 C 1099.79 488.158 1102.37 488.8 1098.89 485.619 C 1099.49 486.172 1090.11 487.502 1087.94 487.48 z"/>
<path transform="translate(0,0)" fill="rgb(151,128,126)" d="M 1083.44 524.396 C 1087.26 521.826 1088.56 519.858 1092.61 522.291 L 1093.35 525.117 C 1097.54 523.736 1100.1 523.84 1102.59 528.359 C 1102.45 531.954 1102.98 530.314 1100.67 533.352 C 1097.29 534.309 1095.72 534.518 1092.2 534.984 L 1091.23 535.526 L 1077.1 538.473 C 1078.55 534.05 1081.37 528.684 1083.44 524.396 z"/>
<path transform="translate(0,0)" fill="rgb(143,120,119)" d="M 1083.44 524.396 C 1087.26 521.826 1088.56 519.858 1092.61 522.291 C 1088.24 525.001 1083.06 527.703 1085.4 533.314 C 1088.15 534.771 1088.2 534.783 1091.23 535.526 L 1077.1 538.473 C 1078.55 534.05 1081.37 528.684 1083.44 524.396 z"/>
<path transform="translate(0,0)" fill="rgb(143,120,119)" d="M 1093.35 525.117 C 1097.54 523.736 1100.1 523.84 1102.59 528.359 C 1102.45 531.954 1102.98 530.314 1100.67 533.352 C 1097.29 534.309 1095.72 534.518 1092.2 534.984 L 1093.32 532.219 C 1095.86 531.056 1095.79 530.971 1097.88 529.06 C 1096.45 526.32 1096.41 526.952 1093.35 525.117 z"/>
<path transform="translate(0,0)" fill="rgb(26,39,51)" d="M 1069.35 539.931 L 1070.06 541.792 C 1078.5 540.671 1083.64 540.459 1092.54 538.864 C 1102.74 537.033 1112.38 531.461 1119.99 531.84 C 1121.38 539.79 1133.47 543.891 1137.6 552.814 C 1141.01 560.177 1143.38 587.704 1146.12 592.299 C 1145.66 594.034 1146.16 593.368 1144.62 594.293 C 1142.91 590.771 1142.89 589.693 1142.17 585.761 L 1141.2 587.12 C 1135.62 587.408 1130.55 586.358 1125.02 585.521 C 1122.39 584.408 1120.21 583.402 1117.63 582.159 L 1118.99 580.984 C 1121.82 573.914 1122.82 561.04 1121.15 553.684 C 1118.55 550.471 1114.16 549.382 1110.34 547.106 C 1105.32 549.313 1104.25 549.767 1098.87 550.652 C 1096.05 551.88 1086.14 555.122 1083.22 555.272 L 1072.58 558.217 L 1061.61 561.605 L 1056 564.464 C 1054.03 563.735 1054.78 564.372 1053.74 562.562 C 1055.14 560.049 1055.42 559.315 1055.96 556.489 C 1056.31 555.412 1056.01 556.148 1057.33 554.529 C 1058.58 556.378 1057.85 555.673 1059.4 556.77 C 1070.05 551.466 1064.65 548.171 1066.19 541.644 L 1064.32 539.701 L 1064.27 538.665 L 1066.08 537.312 C 1068.45 538.497 1067.73 537.921 1069.35 539.931 z"/>
<path transform="translate(0,0)" fill="rgb(71,63,68)" d="M 1110.34 547.106 C 1117.2 544.901 1119.18 545.597 1126.03 548.066 C 1131.5 553.423 1133.41 556.565 1137.46 563.032 C 1140.11 570.851 1141.31 577.536 1142.17 585.761 L 1141.2 587.12 C 1135.62 587.408 1130.55 586.358 1125.02 585.521 C 1122.39 584.408 1120.21 583.402 1117.63 582.159 L 1118.99 580.984 C 1121.82 573.914 1122.82 561.04 1121.15 553.684 C 1118.55 550.471 1114.16 549.382 1110.34 547.106 z"/>
<path transform="translate(0,0)" fill="rgb(43,44,51)" d="M 1098.87 550.652 C 1100.73 549.02 1101.18 549.026 1102.28 546.848 C 1100.48 544.639 1100.51 545.592 1100.62 543.643 C 1117.44 532.427 1135.1 544.369 1137.46 563.032 C 1133.41 556.565 1131.5 553.423 1126.03 548.066 C 1119.18 545.597 1117.2 544.901 1110.34 547.106 C 1105.32 549.313 1104.25 549.767 1098.87 550.652 z"/>
<path transform="translate(0,0)" fill="url(#Gradient10)" d="M 851.514 623.844 C 859.806 624.005 867.966 625.531 875.252 625.161 C 882.916 624.771 899.425 620.059 906.838 621.943 L 907.385 623.917 C 903.943 626.021 902.886 626.159 898.925 627.299 L 899.399 628.4 L 905.479 628.62 L 905.794 629.038 C 902.125 633.648 892.349 635.318 885.958 637.803 C 878.76 637.167 878.238 642.759 869.749 642.125 C 860.206 647.812 860.267 656.723 860.095 667.144 L 857.728 670.352 L 855.226 668.845 C 852.14 669.746 852.843 670.057 850.133 669.497 L 851.001 667.735 C 847.748 664.571 845.1 660.043 844.195 655.616 C 843.981 648.146 832.17 644.179 831.939 637.786 C 831.554 627.126 845.276 624.871 851.514 623.844 z"/>
<path transform="translate(0,0)" fill="rgb(121,86,85)" d="M 859.545 626.882 C 862.39 626.563 862.994 626.085 865.354 627.432 C 863.903 630.129 861.835 630.703 858.992 632.179 L 857.698 632.842 C 856.397 637.293 856.385 637.87 853.779 641.568 L 852.164 641.471 C 848.664 639.148 849.336 640.589 848.548 637.583 C 851.024 631.392 853.637 629.626 859.545 626.882 z"/>
<path transform="translate(0,0)" fill="rgb(121,86,85)" d="M 925.046 650.371 C 929.132 649.025 928.99 648.332 932.48 649.184 L 935.514 653.459 C 940.03 654.144 941.195 652.349 944.584 649.52 C 948.501 648.967 948.381 649.097 951.97 650.207 C 961.46 658.352 942.342 675.78 942.966 678.718 L 943.964 677.272 L 945.057 677.764 C 945.03 682.826 944.844 687.609 946.145 692.551 C 946.894 695.396 949.517 700.163 949.296 702.434 L 959.717 711.443 L 960.734 711.479 C 963.686 713.085 963.492 712.947 965.45 715.692 C 965.999 719.475 966.277 717.716 964.565 721.153 C 962.024 723.079 960.777 723.908 957.421 723.874 C 934.445 723.642 921.986 700.279 933.925 680.487 C 936.732 675.832 925.951 660.199 924.913 652.513 L 925.046 650.371 z"/>
<path transform="translate(0,0)" fill="rgb(95,64,63)" d="M 949.296 702.434 L 959.717 711.443 C 953.586 712.6 948.75 712.79 945.062 707.104 C 946.072 703.588 945.372 704.832 949.296 702.434 z"/>
<path transform="translate(0,0)" fill="rgb(26,39,51)" d="M 1059.91 599.03 C 1059.02 596.866 1057.32 590.086 1057.45 587.688 C 1067.43 577.523 1095.36 582.112 1108.11 584.304 C 1112.72 580.853 1112.74 581.558 1117.63 582.159 C 1120.21 583.402 1122.39 584.408 1125.02 585.521 C 1130.55 586.358 1135.62 587.408 1141.2 587.12 C 1141.17 593.736 1135.73 590.147 1130.88 595.32 C 1120.12 606.812 1114.93 589.657 1102.32 588.362 C 1100.45 592.144 1102 594.593 1098.99 597.817 L 1097.26 598.353 C 1094.07 596.089 1092.91 594.511 1089.07 594.535 C 1087.2 596.04 1086.17 596.772 1084.49 598.529 C 1079.46 599.79 1076.6 599.915 1073.91 604.06 L 1074.18 605.439 C 1074.53 607.348 1074.41 606.575 1074.59 608.412 C 1071.35 608.491 1071.29 608.47 1068.12 607.763 C 1066.34 606.693 1064.12 605.052 1062.36 603.836 L 1059.91 599.03 z"/>

<path transform="translate(0,0)" fill="rgb(71,63,68)" d="M 1108.11 584.304 C 1112.72 580.853 1112.74 581.558 1117.63 582.159 C 1120.21 583.402 1122.39 584.408 1125.02 585.521 C 1124.59 587.225 1124.5 587.601 1124.45 589.496 C 1118.98 587.851 1113.46 586.291 1108.11 584.304 z"/>
<path transform="translate(0,0)" fill="url(#Gradient9)" d="M 817.404 600.829 C 837.236 606.478 831.288 609.185 847.278 620.763 C 848.627 621.74 849.917 622.567 851.514 623.844 C 845.276 624.871 831.554 627.126 831.939 637.786 C 832.17 644.179 843.981 648.146 844.195 655.616 C 845.1 660.043 847.748 664.571 851.001 667.735 L 845.548 667.91 L 844.919 668.715 C 848.78 670.725 850.023 671.186 854.189 672.552 C 849.792 673.467 851.259 672.342 848.849 674.997 C 848.528 678.484 850.644 682.24 852.548 685.135 C 848.974 689.32 850.763 687.946 845.178 690.045 C 843.692 684.403 838.936 676.146 838.836 670.494 L 841.033 669.299 L 841.339 668.017 C 838.602 666.374 835.912 664.654 833.271 662.86 C 832.722 659.156 832.455 660.964 834.738 657.376 C 833.977 651.081 829.302 637.134 823.034 634.456 C 820.413 628.987 819.525 624.47 818.044 618.627 C 815.717 611.532 816.688 608.295 817.404 600.829 z"/>
<path transform="translate(0,0)" fill="rgb(25,25,29)" d="M 875.352 581.931 L 886.488 583.443 L 893.106 584.286 L 893.469 585.14 C 898.523 585.559 901.38 585.514 906.129 587.523 C 909.472 593.115 911.772 597.589 905.278 602.092 C 899.991 600.579 901.032 593.795 897.823 594.229 L 896.714 595.211 C 892.564 598.842 890.024 601.544 884.38 601.719 C 880.901 600.264 879.988 598.792 877.474 596.013 C 872.063 595.121 874.361 598.907 866.962 598.788 C 864.958 595.845 865.664 597.535 865.84 593.163 L 864.339 591.854 C 854.902 592.818 844.456 595.059 836.617 600.713 C 836.514 603.88 837.185 602.932 835.556 604.46 C 832.954 603.595 831.258 601.413 829.252 599.407 C 825.71 597.008 825.644 597.038 822.891 593.831 C 826.599 593.142 826.934 592.86 830.277 591.366 L 832.579 590.212 C 837.274 588.713 841.953 587.162 846.614 585.558 C 849.59 585.321 851.709 584.275 854.492 583.199 C 861.746 582.57 868.079 582.157 875.352 581.931 z"/>
<path transform="translate(0,0)" fill="rgb(26,39,51)" d="M 875.352 581.931 L 886.488 583.443 L 893.106 584.286 L 893.469 585.14 C 886.49 590.018 878.273 585.376 868.19 587.305 C 855.774 589.186 858.566 587.318 848.214 585.781 L 846.614 585.558 C 849.59 585.321 851.709 584.275 854.492 583.199 C 861.746 582.57 868.079 582.157 875.352 581.931 z"/>
<path transform="translate(0,0)" fill="rgb(44,32,33)" d="M 1028.01 557.801 C 1029.99 556.473 1029.33 556.934 1031.95 556.535 C 1040.9 559.877 1047.4 562.323 1055.96 556.489 C 1055.42 559.315 1055.14 560.049 1053.74 562.562 C 1054.78 564.372 1054.03 563.735 1056 564.464 L 1061.61 561.605 C 1059.73 564.534 1057.79 566.889 1057.25 570.263 C 1059.78 575.181 1062.77 574.07 1067.21 576.907 C 1064.73 578.339 1063.33 579.38 1060.49 579.916 C 1056.17 581.584 1052.99 582.885 1048.85 584.934 C 1043.66 587.503 1035.44 595.938 1031.12 596.898 C 1030.58 595.752 1030.28 595.368 1030.04 594.153 L 1032.43 590.162 C 1032.47 585.624 1034.08 581.455 1032.74 578.382 C 1029.68 579.007 1029.57 579.378 1026.81 578.18 C 1023.71 574.161 1024.84 574.404 1019.99 574.154 L 1019.8 573.27 L 1009.72 579.191 L 1010.65 576.642 C 1018.71 571.374 1022.04 565.305 1028.01 557.801 z"/>
<path transform="translate(0,0)" fill="rgb(81,60,59)" d="M 1032.51 567.589 C 1038.06 567.504 1041.71 566.609 1045.54 570.155 C 1045.54 577.078 1037.44 584.508 1032.43 590.162 C 1032.47 585.624 1034.08 581.455 1032.74 578.382 C 1029.68 579.007 1029.57 579.378 1026.81 578.18 C 1023.71 574.161 1024.84 574.404 1019.99 574.154 L 1019.8 573.27 C 1022.84 569.217 1027.21 569.059 1032.51 567.589 z"/>
<path transform="translate(0,0)" fill="rgb(43,44,51)" d="M 1028.01 557.801 L 1031.07 557.653 C 1031.39 559.267 1031.59 558.67 1031.12 559.545 C 1034.05 561.063 1036.74 561.908 1037.19 565.512 C 1035.66 566.229 1034.1 567.023 1032.51 567.589 C 1027.21 569.059 1022.84 569.217 1019.8 573.27 L 1009.72 579.191 L 1010.65 576.642 C 1018.71 571.374 1022.04 565.305 1028.01 557.801 z"/>
<path transform="translate(0,0)" fill="rgb(95,64,63)" d="M 1056 564.464 L 1061.61 561.605 C 1059.73 564.534 1057.79 566.889 1057.25 570.263 C 1059.78 575.181 1062.77 574.07 1067.21 576.907 C 1064.73 578.339 1063.33 579.38 1060.49 579.916 C 1055.05 575.958 1051.97 579.747 1045.93 579.142 C 1045.83 575.984 1053.55 567.414 1056 564.464 z"/>
<path transform="translate(0,0)" fill="rgb(165,118,109)" d="M 885.958 637.803 C 891.087 637.213 895.567 635.842 900.269 636.863 L 899.178 636.842 C 898.984 636.843 898.791 636.844 898.597 636.845 L 897.955 638.221 C 888.03 641.566 871.033 645.829 864.893 654.665 C 859.037 663.093 874.497 675.265 857.518 672.721 L 856.161 671.623 L 856.379 670.427 L 857.728 670.352 L 860.095 667.144 C 860.267 656.723 860.206 647.812 869.749 642.125 C 878.238 642.759 878.76 637.167 885.958 637.803 z"/>
<path transform="translate(0,0)" fill="rgb(89,79,86)" d="M 1072.58 558.217 L 1083.22 555.272 C 1080.02 559.637 1078.34 560.778 1073.87 563.872 C 1072.36 569.734 1077.84 570.185 1071.55 575.734 L 1069.08 576.16 L 1067.21 576.907 C 1062.77 574.07 1059.78 575.181 1057.25 570.263 C 1057.79 566.889 1059.73 564.534 1061.61 561.605 L 1072.58 558.217 z"/>
<path transform="translate(0,0)" fill="rgb(81,60,59)" d="M 1061.61 561.605 L 1072.58 558.217 C 1068.37 562.647 1066.12 563.956 1064.74 569.659 C 1067.78 577.214 1069.9 571.665 1069.08 576.16 L 1067.21 576.907 C 1062.77 574.07 1059.78 575.181 1057.25 570.263 C 1057.79 566.889 1059.73 564.534 1061.61 561.605 z"/>
<path transform="translate(0,0)" fill="rgb(44,32,33)" d="M 918.054 593.437 L 923.195 597.747 C 926.936 600.669 928.793 602.677 930.231 607.403 L 927.299 610.494 L 924.281 608.818 C 922.05 610.184 921.738 610.709 919.211 610.941 L 916.058 607.854 C 914.303 604.536 913.666 604.228 910.739 601.642 L 909.851 600.867 L 909.9 599.901 C 913.692 597.656 914.073 597.348 917.277 594.209 L 918.054 593.437 z"/>
<path transform="translate(0,0)" fill="rgb(95,64,63)" d="M 923.195 597.747 C 926.936 600.669 928.793 602.677 930.231 607.403 L 927.299 610.494 L 924.281 608.818 C 922.05 610.184 921.738 610.709 919.211 610.941 L 916.058 607.854 C 920.173 608.8 920.465 608.63 923.398 606.04 C 924.494 602.203 924.175 601.788 923.195 597.747 z"/>
<path transform="translate(0,0)" fill="rgb(151,128,126)" d="M 1068.12 607.763 C 1066.39 609.616 1066.34 610.438 1064.41 610.495 C 1058.04 610.682 1050.14 610.992 1044.89 607.278 C 1045.79 603.512 1050.11 599.938 1053.31 597.944 C 1058.19 597.529 1056.12 596.938 1059.91 599.03 L 1062.36 603.836 C 1064.12 605.052 1066.34 606.693 1068.12 607.763 z"/>
<path transform="translate(0,0)" fill="rgb(95,64,63)" d="M 935.286 618.684 C 932.488 626.089 937.523 628.272 932.88 638.005 L 931.019 638.661 C 928.722 634.545 930.082 628.109 929.436 627.497 C 927.228 625.405 919.768 617.776 917.406 615.135 L 918.377 613.405 L 916.878 612.783 C 920.708 613.326 919.588 613.242 923.039 616.161 C 926.75 616.146 931.521 615.666 934.688 617.241 L 935.286 618.684 z"/>
<path transform="translate(0,0)" fill="rgb(43,44,51)" d="M 1164.55 659.309 C 1165.92 656.063 1166.41 655.677 1168.52 652.932 L 1170.61 652.532 C 1177.46 659.433 1169.4 678.113 1164.55 684.307 C 1164.27 675.28 1164.12 672.091 1166.81 663.112 C 1167.25 661.654 1165.71 660.67 1164.55 659.309 z"/>
<path transform="translate(0,0)" fill="rgb(95,64,63)" d="M 1019.99 574.154 C 1024.84 574.404 1023.71 574.161 1026.81 578.18 C 1029.57 579.378 1029.68 579.007 1032.74 578.382 C 1034.08 581.455 1032.47 585.624 1032.43 590.162 L 1030.04 594.153 L 1028.01 594.039 C 1025.95 591.692 1025.92 587.865 1025.49 584.595 C 1024.86 586.299 1025.37 585.606 1024.01 586.705 C 1023.5 584.688 1023.1 582.752 1022.67 580.717 C 1017.55 576.79 1022.14 581.483 1017.28 580.977 L 1019.99 574.154 z"/>
<path transform="translate(0,0)" fill="rgb(218,205,197)" d="M 972.349 662.698 L 971.631 660.044 C 974.396 654.428 975.179 646.283 975.929 640.023 L 977.493 640.342 C 979.925 648.255 982.968 648.382 982.2 655.541 C 981.139 659.806 981.641 661.17 978.98 663.429 C 976.561 663.259 974.752 663.041 972.349 662.698 z"/>
<path transform="translate(0,0)" fill="rgb(81,60,59)" d="M 930.231 607.403 L 938.603 608.741 C 938.221 609.657 935.113 618.969 935.286 618.684 L 934.688 617.241 C 931.521 615.666 926.75 616.146 923.039 616.161 C 926.291 613.164 926.091 614.188 927.299 610.494 L 930.231 607.403 z"/>
<path transform="translate(0,0)" fill="rgb(218,205,197)" d="M 1089.49 639.607 C 1092.19 639.451 1095.78 639.83 1098.06 641.359 C 1096.04 642.428 1096.93 641.811 1095.34 643.154 C 1101.93 645.006 1104.8 640.44 1111.04 646.306 C 1115.45 660.26 1097.24 662.189 1087.99 664.21 C 1073.19 667.443 1061.86 663.028 1048.63 657.046 C 1048.21 656.963 1047.8 656.881 1047.38 656.798 C 1042.97 654.507 1031.18 646.752 1030.37 642.015 L 1032.27 639.986 C 1036.65 639.68 1041.28 643.314 1045.49 643.412 C 1051.29 643.546 1086.5 645.521 1089.2 643.306 C 1086.24 641.477 1083.99 642.054 1080.59 640.69 C 1083.55 639.415 1084.35 639.811 1087.52 640.35 L 1088.54 640.534 L 1089.49 639.607 z"/>
<path transform="translate(0,0)" fill="rgb(174,137,132)" d="M 906.138 642.059 C 908.476 642.583 908.133 642.541 910.341 643.536 C 911.944 646.397 913.679 648.983 915.467 651.723 C 916.286 665.33 884.623 671.407 874.207 672.887 C 871.871 672.528 872.027 672.591 870.102 671.221 L 869.979 669.128 L 871.74 668.187 C 869.192 649.871 890.278 649.362 906.138 642.059 z"/>
<path transform="translate(0,0)" fill="rgb(174,137,132)" d="M 1026.8 610.264 C 1030.37 608.124 1031.3 608.177 1035.51 607.383 C 1038.96 608.773 1037.53 607.679 1039.68 611.114 L 1038.9 612.978 L 1038 612.909 L 1038.94 613.946 L 1040.24 614.014 C 1042.85 614.003 1065.12 617.896 1068.69 618.714 L 1072.05 618.996 L 1072.98 620.234 C 1047.09 629.91 1048.35 620.589 1023.56 620.754 C 1021.2 623.509 1020.73 623.67 1019.62 627.187 L 1019.09 626.781 C 1017.84 620.286 1015.21 614.935 1019.8 609.933 C 1022.63 609.683 1024.02 609.94 1026.8 610.264 z"/>
<path transform="translate(0,0)" fill="rgb(165,118,109)" d="M 1040.24 614.014 C 1042.85 614.003 1065.12 617.896 1068.69 618.714 C 1056.81 625.761 1049.12 623.072 1040.24 614.014 z"/>
<path transform="translate(0,0)" fill="rgb(165,118,109)" d="M 1019.09 626.781 C 1017.84 620.286 1015.21 614.935 1019.8 609.933 C 1022.63 609.683 1024.02 609.94 1026.8 610.264 C 1022.76 615.765 1019.16 620.159 1019.09 626.781 z"/>
<path transform="translate(0,0)" fill="rgb(212,162,147)" d="M 1001.59 622.156 C 1005.92 626.03 1008.07 625.504 1011.38 628.775 C 997.897 629.186 1005.31 638.837 1001.98 648.592 C 1000.85 651.895 1000.02 653.567 998.23 656.609 L 995.201 656.963 C 991.291 652.515 987.14 648.03 983.89 643.099 L 984.466 641.699 C 1000 640.379 997.194 636.485 1001.59 622.156 z"/>
<path transform="translate(0,0)" fill="rgb(143,120,119)" d="M 1097.66 557.326 C 1100.05 557.391 1099.84 557.401 1102.16 557.856 C 1105.62 563.486 1104.61 566.843 1100.09 570.955 C 1095.6 572.11 1096.4 571.453 1091.12 569.669 L 1090.94 569.766 L 1088.73 568.555 C 1091.39 566.48 1092.97 566.873 1096.17 565.513 C 1095.3 562.86 1092.68 565.631 1089.41 562.583 C 1091.64 559.829 1094.42 558.902 1097.66 557.326 z"/>
<path transform="translate(0,0)" fill="rgb(128,100,102)" d="M 902.731 610.149 C 904.09 612.348 905.554 613.186 907.612 614.729 L 907.877 616.706 C 901.237 618.422 896.931 617.033 890.409 620.514 C 887.474 619.399 886.84 619.743 885.284 617.634 C 889.199 613.899 897.485 611.621 902.731 610.149 z"/>
<path transform="translate(0,0)" fill="rgb(143,120,119)" d="M 863.012 606.875 C 866.725 608.991 875.571 613.371 878.147 616.006 L 877.145 617.487 C 871.503 617.193 863.761 617.635 860.654 612.34 C 860.987 608.365 860.329 610.165 863.012 606.875 z"/>
<path transform="translate(0,0)" fill="rgb(109,83,83)" d="M 908.934 615.368 C 915.991 619.846 923.676 624.223 926.403 632.447 C 920.491 628.798 911.907 621.824 908.934 615.368 z"/>
<path transform="translate(0,0)" fill="url(#Gradient8)" d="M 844.253 480.655 C 850.771 461.534 854.605 446.923 865.495 429.825 C 866.805 443.105 869.247 456.943 871.36 470.165 C 872.317 465.484 868.281 439.897 867.209 433.448 L 868.793 438.797 C 870.638 445.034 869.239 446.927 871.678 451.861 C 872.943 454.418 873.344 462.152 874.093 464.772 C 879.136 482.406 890.756 499.826 896.829 517.271 C 897.465 519.096 896.709 517.43 898.066 519.946 C 901.316 525.846 912.066 543.506 911.7 549.107 C 889.72 548.254 871.094 544.409 849.43 540.741 C 846.265 540.42 844.66 540.598 841.854 539.326 C 842.71 537.992 843.379 536.649 843.989 535.187 L 839.657 535.09 L 837.876 533.12 C 836.233 526.58 842.978 511.201 844.008 502.525 L 841.868 503.674 C 841.307 499.697 842.543 494.79 842.181 489.944 C 842.4 488.213 843.807 482.617 844.253 480.655 z"/>
<path transform="translate(0,0)" fill="rgb(71,63,68)" d="M 871.36 470.165 C 872.317 465.484 868.281 439.897 867.209 433.448 L 868.793 438.797 C 870.638 445.034 869.239 446.927 871.678 451.861 C 872.943 454.418 873.344 462.152 874.093 464.772 C 879.136 482.406 890.756 499.826 896.829 517.271 C 897.465 519.096 896.709 517.43 898.066 519.946 C 901.316 525.846 912.066 543.506 911.7 549.107 C 889.72 548.254 871.094 544.409 849.43 540.741 C 846.265 540.42 844.66 540.598 841.854 539.326 C 842.71 537.992 843.379 536.649 843.989 535.187 C 854.855 537.329 867.715 539.784 878.732 540.9 C 882.246 540.62 883.162 540.637 886.62 539.519 C 888.956 536.732 888.343 538.293 888.547 534.682 C 886.602 530.887 882.096 522.175 883.326 518.083 C 880.048 509.923 869.924 477.064 871.36 470.165 z"/>
<path transform="translate(0,0)" fill="rgb(43,44,51)" d="M 898.066 519.946 C 901.316 525.846 912.066 543.506 911.7 549.107 C 889.72 548.254 871.094 544.409 849.43 540.741 C 846.265 540.42 844.66 540.598 841.854 539.326 C 842.71 537.992 843.379 536.649 843.989 535.187 C 854.855 537.329 867.715 539.784 878.732 540.9 C 886.604 542.99 895.737 544.363 902.995 546.662 C 906.055 546.9 904.683 547.295 907.305 546.078 C 908.44 540.656 900.66 527.956 897.684 522.253 L 898.066 519.946 z"/>
<path transform="translate(0,0)" fill="rgb(95,64,63)" d="M 883.326 518.083 C 885.271 521.237 885.957 524.461 888.878 526.189 C 890.367 525.762 891.863 525.36 893.365 524.981 C 896.907 529.273 902.916 540.797 902.995 546.662 C 895.737 544.363 886.604 542.99 878.732 540.9 C 882.246 540.62 883.162 540.637 886.62 539.519 C 888.956 536.732 888.343 538.293 888.547 534.682 C 886.602 530.887 882.096 522.175 883.326 518.083 z"/>
<path transform="translate(0,0)" fill="rgb(81,60,59)" d="M 893.365 524.981 L 892.283 521.899 C 889.762 520.436 888.317 518.942 886.109 517.029 L 886.636 514.74 C 888.615 515.362 887.571 515.1 889.777 515.493 L 890.185 511.977 L 891.017 512.384 C 892.814 519.544 892.119 518.224 897.684 522.253 C 900.66 527.956 908.44 540.656 907.305 546.078 C 904.683 547.295 906.055 546.9 902.995 546.662 C 902.916 540.797 896.907 529.273 893.365 524.981 z"/>

<path transform="translate(0,0)" fill="rgb(26,39,51)" d="M 813.104 602.058 C 806.934 574.537 814.252 549.125 829.634 526.639 C 834.303 519.814 837.491 487.074 844.253 480.655 C 843.807 482.617 842.4 488.213 842.181 489.944 C 842.543 494.79 841.307 499.697 841.868 503.674 L 844.008 502.525 C 842.978 511.201 836.233 526.58 837.876 533.12 L 839.657 535.09 L 843.989 535.187 C 843.379 536.649 842.71 537.992 841.854 539.326 C 844.66 540.598 846.265 540.42 849.43 540.741 C 838.59 540.931 831.244 543.574 823.089 543.725 C 821.344 546.933 818.967 549.797 819.252 552.802 C 822.797 554.161 823.932 552.723 827.491 552.53 C 826.53 555.049 826.97 555.141 825.252 556.558 C 817.98 563.409 822.135 569.731 819.766 578.063 C 820.037 583.422 819.49 590.067 822.891 593.831 C 825.644 597.038 825.71 597.008 829.252 599.407 L 827.247 602.1 C 821.626 602.471 821.45 599.793 817.404 600.829 C 816.688 608.295 815.717 611.532 818.044 618.627 C 816.507 620.507 817.445 619.695 815.164 620.982 L 814.319 618.975 C 815.057 612.19 814.219 608.778 813.104 602.058 z"/>
<path transform="translate(0,0)" fill="rgb(44,32,33)" d="M 813.104 602.058 C 813.254 594.718 814.773 559.169 819.395 555.519 C 820.807 560.835 817.578 569.077 819.766 578.063 C 820.037 583.422 819.49 590.067 822.891 593.831 C 825.644 597.038 825.71 597.008 829.252 599.407 L 827.247 602.1 C 821.626 602.471 821.45 599.793 817.404 600.829 C 816.688 608.295 815.717 611.532 818.044 618.627 C 816.507 620.507 817.445 619.695 815.164 620.982 L 814.319 618.975 C 815.057 612.19 814.219 608.778 813.104 602.058 z"/>
<path transform="translate(0,0)" fill="rgb(71,63,68)" d="M 842.181 489.944 C 842.543 494.79 841.307 499.697 841.868 503.674 L 844.008 502.525 C 842.978 511.201 836.233 526.58 837.876 533.12 L 839.657 535.09 C 836.946 536.305 825.83 542.118 823.794 540.817 C 833.551 524.603 837.099 508.1 842.181 489.944 z"/>









<path transform="translate(0,0)" fill="rgb(72,72,83)" d="M 1033.59 548.23 L 1032.64 548.807 C 1029.5 548.295 1029.64 548.15 1026.93 546.346 C 1036.65 542.342 1047.35 512.404 1053.72 501.661 L 1056.62 501.95 C 1056.83 501.77 1065.92 478.12 1066.2 475.476 C 1068.16 481.648 1060.02 497.535 1058.4 504.531 C 1054.71 520.467 1061.75 544.237 1040.41 548.084 L 1033.59 548.23 z"/>
<path transform="translate(0,0)" fill="rgb(134,109,104)" d="M 1033.59 548.23 L 1031.99 547.675 C 1032.49 545.237 1049.51 513.777 1051.69 510.718 C 1052.04 517.585 1043.67 541.133 1040.41 548.084 L 1033.59 548.23 z"/>


<path transform="translate(0,0)" fill="rgb(43,44,51)" d="M 818.507 654.851 L 819.277 653.461 C 816.919 650.947 811.813 645.59 812.063 642.282 C 814.631 642.558 813.725 642.624 816.318 641.912 C 816.087 635.912 807.57 605.171 809.002 602.515 C 810.625 609.784 811.481 612.096 814.319 618.975 L 815.164 620.982 C 817.445 619.695 816.507 620.507 818.044 618.627 C 819.525 624.47 820.413 628.987 823.034 634.456 C 824.665 639.265 826.54 643.184 825.992 648.121 L 825.62 647.812 C 825.656 652.909 825.199 658.302 828.355 662.495 L 825.163 661.829 C 824.497 660.966 819.867 656.387 818.507 654.851 z"/>







<path transform="translate(0,0)" fill="rgb(72,72,83)" d="M 1064.32 539.701 C 1060.8 543.005 1059.72 544.843 1055.3 545.217 L 1054.28 543.658 L 1054.96 540.674 C 1057.21 537.784 1057.37 537.973 1060.69 536.704 L 1064.27 538.665 L 1064.32 539.701 z"/>
<path transform="translate(0,0)" fill="rgb(43,44,51)" d="M 965.689 608.699 C 968.598 608.677 967.407 608.148 969.528 609.745 L 969.373 612.143 C 967.005 615.772 966.775 615.778 962.63 617.512 C 962.593 616.879 962.671 617.363 962.094 615.682 L 961.666 616.381 L 960.514 615.539 L 965.689 608.699 z"/>






















































































































































































































































































































































































































</svg>