<svg version="1.1" xmlns="http://www.w3.org/2000/svg" style="display: block;" viewBox="0 0 2048 2048" width="1024" height="1024" preserveAspectRatio="none">
<defs>
	<linearGradient id="Gradient1" gradientUnits="userSpaceOnUse" x1="160.051" y1="381.547" x2="168.236" y2="375.232">
		<stop class="stop0" offset="0" stop-opacity="1" stop-color="rgb(51,70,89)"/>
		<stop class="stop1" offset="1" stop-opacity="1" stop-color="rgb(74,94,111)"/>
	</linearGradient>
	<linearGradient id="Gradient2" gradientUnits="userSpaceOnUse" x1="66.5737" y1="498.248" x2="64.4437" y2="493.788">
		<stop class="stop0" offset="0" stop-opacity="1" stop-color="rgb(37,55,79)"/>
		<stop class="stop1" offset="1" stop-opacity="1" stop-color="rgb(66,87,105)"/>
	</linearGradient>
	<linearGradient id="Gradient3" gradientUnits="userSpaceOnUse" x1="542.958" y1="1208.49" x2="552.399" y2="1185.25">
		<stop class="stop0" offset="0" stop-opacity="1" stop-color="rgb(112,111,122)"/>
		<stop class="stop1" offset="1" stop-opacity="1" stop-color="rgb(123,133,152)"/>
	</linearGradient>
	<linearGradient id="Gradient4" gradientUnits="userSpaceOnUse" x1="486.511" y1="1220.29" x2="503.959" y2="1252.09">
		<stop class="stop0" offset="0" stop-opacity="1" stop-color="rgb(119,117,127)"/>
		<stop class="stop1" offset="1" stop-opacity="1" stop-color="rgb(150,147,156)"/>
	</linearGradient>
	<linearGradient id="Gradient5" gradientUnits="userSpaceOnUse" x1="116.313" y1="1866.54" x2="121.688" y2="1848.76">
		<stop class="stop0" offset="0" stop-opacity="1" stop-color="rgb(169,109,104)"/>
		<stop class="stop1" offset="1" stop-opacity="1" stop-color="rgb(202,162,156)"/>
	</linearGradient>
	<linearGradient id="Gradient6" gradientUnits="userSpaceOnUse" x1="173.806" y1="1708.81" x2="251.335" y2="2056.75">
		<stop class="stop0" offset="0" stop-opacity="1" stop-color="rgb(144,96,97)"/>
		<stop class="stop1" offset="1" stop-opacity="1" stop-color="rgb(215,151,135)"/>
	</linearGradient>
	<linearGradient id="Gradient7" gradientUnits="userSpaceOnUse" x1="945.009" y1="1120.25" x2="906.849" y2="1063.97">
		<stop class="stop0" offset="0" stop-opacity="1" stop-color="rgb(29,32,41)"/>
		<stop class="stop1" offset="1" stop-opacity="1" stop-color="rgb(60,65,72)"/>
	</linearGradient>
	<linearGradient id="Gradient8" gradientUnits="userSpaceOnUse" x1="832.569" y1="463.525" x2="893.541" y2="533.148">
		<stop class="stop0" offset="0" stop-opacity="1" stop-color="rgb(55,41,41)"/>
		<stop class="stop1" offset="1" stop-opacity="1" stop-color="rgb(115,84,82)"/>
	</linearGradient>
	<linearGradient id="Gradient9" gradientUnits="userSpaceOnUse" x1="818.39" y1="603.431" x2="839.343" y2="633.11">
		<stop class="stop0" offset="0" stop-opacity="1" stop-color="rgb(69,47,47)"/>
		<stop class="stop1" offset="1" stop-opacity="1" stop-color="rgb(103,72,70)"/>
	</linearGradient>
	<linearGradient id="Gradient10" gradientUnits="userSpaceOnUse" x1="851.818" y1="615.02" x2="880.187" y2="648.137">
		<stop class="stop0" offset="0" stop-opacity="1" stop-color="rgb(101,71,69)"/>
		<stop class="stop1" offset="1" stop-opacity="1" stop-color="rgb(159,118,113)"/>
	</linearGradient>
	<linearGradient id="Gradient11" gradientUnits="userSpaceOnUse" x1="796.848" y1="646.014" x2="823.987" y2="658.516">
		<stop class="stop0" offset="0" stop-opacity="1" stop-color="rgb(40,36,40)"/>
		<stop class="stop1" offset="1" stop-opacity="1" stop-color="rgb(68,54,55)"/>
	</linearGradient>
	<linearGradient id="Gradient12" gradientUnits="userSpaceOnUse" x1="879.143" y1="794.523" x2="905.001" y2="764.177">
		<stop class="stop0" offset="0" stop-opacity="1" stop-color="rgb(99,73,72)"/>
		<stop class="stop1" offset="1" stop-opacity="1" stop-color="rgb(131,97,93)"/>
	</linearGradient>
	<linearGradient id="Gradient13" gradientUnits="userSpaceOnUse" x1="910.328" y1="827.232" x2="934.746" y2="670.158">
		<stop class="stop0" offset="0" stop-opacity="1" stop-color="rgb(109,76,76)"/>
		<stop class="stop1" offset="1" stop-opacity="1" stop-color="rgb(184,148,137)"/>
	</linearGradient>
	<linearGradient id="Gradient14" gradientUnits="userSpaceOnUse" x1="1078.16" y1="812.419" x2="1007.94" y2="644.566">
		<stop class="stop0" offset="0" stop-opacity="1" stop-color="rgb(200,179,168)"/>
		<stop class="stop1" offset="1" stop-opacity="1" stop-color="rgb(236,220,210)"/>
	</linearGradient>
	<linearGradient id="Gradient15" gradientUnits="userSpaceOnUse" x1="1084.8" y1="784.551" x2="1102.04" y2="809.569">
		<stop class="stop0" offset="0" stop-opacity="1" stop-color="rgb(33,25,28)"/>
		<stop class="stop1" offset="1" stop-opacity="1" stop-color="rgb(71,49,46)"/>
	</linearGradient>
	<linearGradient id="Gradient16" gradientUnits="userSpaceOnUse" x1="1055.21" y1="851.515" x2="1090.09" y2="943.993">
		<stop class="stop0" offset="0" stop-opacity="1" stop-color="rgb(129,102,92)"/>
		<stop class="stop1" offset="1" stop-opacity="1" stop-color="rgb(176,149,140)"/>
	</linearGradient>
	<linearGradient id="Gradient17" gradientUnits="userSpaceOnUse" x1="892.439" y1="846.314" x2="1071.74" y2="927.287">
		<stop class="stop0" offset="0" stop-opacity="1" stop-color="rgb(29,17,18)"/>
		<stop class="stop1" offset="1" stop-opacity="1" stop-color="rgb(114,83,79)"/>
	</linearGradient>
	<linearGradient id="Gradient18" gradientUnits="userSpaceOnUse" x1="526.482" y1="1578.48" x2="477.763" y2="1553.13">
		<stop class="stop0" offset="0" stop-opacity="1" stop-color="rgb(51,57,63)"/>
		<stop class="stop1" offset="1" stop-opacity="1" stop-color="rgb(89,99,120)"/>
	</linearGradient>
	<linearGradient id="Gradient19" gradientUnits="userSpaceOnUse" x1="423.593" y1="2003.54" x2="378.295" y2="2007.26">
		<stop class="stop0" offset="0" stop-opacity="1" stop-color="rgb(90,62,61)"/>
		<stop class="stop1" offset="1" stop-opacity="1" stop-color="rgb(125,80,78)"/>
	</linearGradient>
	<linearGradient id="Gradient20" gradientUnits="userSpaceOnUse" x1="667.322" y1="1177.27" x2="631.463" y2="1124.88">
		<stop class="stop0" offset="0" stop-opacity="1" stop-color="rgb(129,152,169)"/>
		<stop class="stop1" offset="1" stop-opacity="1" stop-color="rgb(167,189,202)"/>
	</linearGradient>
	<linearGradient id="Gradient21" gradientUnits="userSpaceOnUse" x1="936.655" y1="205.561" x2="956.188" y2="226.789">
		<stop class="stop0" offset="0" stop-opacity="1" stop-color="rgb(64,75,92)"/>
		<stop class="stop1" offset="1" stop-opacity="1" stop-color="rgb(84,98,113)"/>
	</linearGradient>
	<linearGradient id="Gradient22" gradientUnits="userSpaceOnUse" x1="717.8" y1="354.76" x2="926.02" y2="411.555">
		<stop class="stop0" offset="0" stop-opacity="1" stop-color="rgb(25,36,50)"/>
		<stop class="stop1" offset="1" stop-opacity="1" stop-color="rgb(73,77,85)"/>
	</linearGradient>
	<linearGradient id="Gradient23" gradientUnits="userSpaceOnUse" x1="1091.61" y1="467.92" x2="1282.77" y2="419.916">
		<stop class="stop0" offset="0" stop-opacity="1" stop-color="rgb(104,112,134)"/>
		<stop class="stop1" offset="1" stop-opacity="1" stop-color="rgb(183,181,179)"/>
	</linearGradient>
	<linearGradient id="Gradient24" gradientUnits="userSpaceOnUse" x1="1303.25" y1="409.902" x2="978.06" y2="436.101">
		<stop class="stop0" offset="0" stop-opacity="1" stop-color="rgb(79,89,102)"/>
		<stop class="stop1" offset="1" stop-opacity="1" stop-color="rgb(101,112,126)"/>
	</linearGradient>
	<linearGradient id="Gradient25" gradientUnits="userSpaceOnUse" x1="1888.94" y1="731.702" x2="1871.33" y2="694.344">
		<stop class="stop0" offset="0" stop-opacity="1" stop-color="rgb(73,84,105)"/>
		<stop class="stop1" offset="1" stop-opacity="1" stop-color="rgb(80,105,123)"/>
	</linearGradient>
	<linearGradient id="Gradient26" gradientUnits="userSpaceOnUse" x1="1709.58" y1="1339.75" x2="1682.45" y2="1344.42">
		<stop class="stop0" offset="0" stop-opacity="1" stop-color="rgb(191,169,151)"/>
		<stop class="stop1" offset="1" stop-opacity="1" stop-color="rgb(222,208,210)"/>
	</linearGradient>
	<linearGradient id="Gradient27" gradientUnits="userSpaceOnUse" x1="1432.49" y1="1062.49" x2="1465.69" y2="943.841">
		<stop class="stop0" offset="0" stop-opacity="1" stop-color="rgb(180,187,187)"/>
		<stop class="stop1" offset="1" stop-opacity="1" stop-color="rgb(242,219,210)"/>
	</linearGradient>
	<linearGradient id="Gradient28" gradientUnits="userSpaceOnUse" x1="1794.97" y1="1639.68" x2="1780.03" y2="1648.32">
		<stop class="stop0" offset="0" stop-opacity="1" stop-color="rgb(182,142,137)"/>
		<stop class="stop1" offset="1" stop-opacity="1" stop-color="rgb(222,203,198)"/>
	</linearGradient>
	<linearGradient id="Gradient29" gradientUnits="userSpaceOnUse" x1="1949.88" y1="1559.71" x2="1854.5" y2="2053.94">
		<stop class="stop0" offset="0" stop-opacity="1" stop-color="rgb(156,100,101)"/>
		<stop class="stop1" offset="1" stop-opacity="1" stop-color="rgb(238,184,150)"/>
	</linearGradient>
	<linearGradient id="Gradient30" gradientUnits="userSpaceOnUse" x1="1092.35" y1="1127.11" x2="1080.49" y2="1085.83">
		<stop class="stop0" offset="0" stop-opacity="1" stop-color="rgb(30,36,46)"/>
		<stop class="stop1" offset="1" stop-opacity="1" stop-color="rgb(60,64,71)"/>
	</linearGradient>
	<linearGradient id="Gradient31" gradientUnits="userSpaceOnUse" x1="1649.67" y1="1182.25" x2="1570.65" y2="1178.32">
		<stop class="stop0" offset="0" stop-opacity="1" stop-color="rgb(71,69,79)"/>
		<stop class="stop1" offset="1" stop-opacity="1" stop-color="rgb(93,100,109)"/>
	</linearGradient>
</defs>

<path transform="translate(0,0)" fill="rgb(43,44,51)" d="M 1339.5 951.702 L 1342.66 953.542 C 1347.82 958.835 1364.86 969.944 1371.89 972.284 C 1369.23 971.801 1365.79 970.638 1363.79 971.489 C 1365.67 976.118 1373.68 976.679 1377.51 979.347 C 1382.54 984.114 1383.37 984.403 1386.71 990.26 L 1386.53 990.692 C 1388.38 993.471 1390.75 994.07 1393.87 995.468 C 1396.57 994.468 1399.27 993.503 1401.99 992.575 C 1404.76 993.26 1407.73 993.547 1409.53 995.523 C 1423.55 999.932 1453.32 1009.39 1465.9 1015.64 C 1492.1 1026.19 1518.63 1041.44 1539.57 1060.36 C 1548.24 1068.69 1585.21 1102.58 1588.44 1108.93 C 1588.95 1113.18 1607.57 1150.64 1610.66 1157.9 C 1609.77 1173.47 1620.62 1188.96 1625.94 1203.49 C 1631.37 1218.32 1637.21 1233.11 1642.75 1247.91 C 1645.08 1253.8 1650.11 1257.93 1655.01 1261.62 C 1657.63 1263.52 1659.91 1265.37 1662.84 1266.73 C 1665.13 1271.35 1665.44 1272.22 1669.88 1275.16 C 1681.74 1287.32 1687.9 1324.19 1695.39 1340.93 C 1696.68 1343.81 1704.41 1365.01 1704.63 1366.77 C 1708.64 1378.45 1712.86 1393.68 1715.95 1405.77 L 1739.17 1503.94 C 1744.27 1527.77 1751.03 1565.19 1759.06 1587.34 C 1762.98 1600.52 1767.38 1613.57 1772.25 1626.43 C 1773.48 1629.66 1780.3 1646.2 1780.65 1647.87 C 1788.86 1661.94 1795.8 1673.46 1804.76 1687.14 C 1806.57 1690.35 1808.28 1693.42 1809.96 1696.7 C 1810.81 1699.68 1811.94 1703.29 1812.56 1706.25 C 1813.6 1712.79 1812.52 1718.03 1811.23 1724.4 C 1807.82 1741.29 1805.29 1758.62 1808.25 1775.83 C 1811.48 1811.83 1822.44 1851.46 1823.04 1888.73 C 1824.08 1895.89 1825.62 1901.41 1825.78 1908.76 C 1826.22 1928.47 1822.29 1948.28 1820.97 1967.77 C 1818.84 1999.19 1813.31 2019.63 1799.63 2048 L 1742.93 2048 L 1373.28 2048 L 1253.3 2048 L 1194.35 2048 L 1156.41 2048 L 458.228 2048 L 458.411 2045.02 L 514.743 2044.86 C 522.007 2044.9 555.37 2046.08 559.36 2043.1 C 575.93 2030.75 592.115 2011.49 604.936 1994.99 C 646.265 1941.81 637.15 1860.89 641.25 1797.14 C 651.724 1634.3 646.142 1469.79 617.166 1309.08 C 617.059 1303.14 623.834 1272.32 633.517 1276.6 C 643.415 1280.98 647.949 1299.07 647.012 1308.96 C 646.565 1313.67 648.571 1324.77 646.492 1328.38 C 642.25 1335.76 649.718 1339.44 649.419 1343.14 C 648.217 1358.01 655.92 1368.45 659.671 1382.16 C 662.991 1397.43 660.748 1415.49 669.704 1429.26 C 672.108 1432.96 673.35 1435.87 675.392 1439.61 L 676.809 1440.02 C 677.714 1437.3 677.648 1438.64 677.07 1435.87 L 675.405 1435.63 L 675.037 1433.81 C 675.923 1432.2 676.668 1431.39 676.528 1429.75 C 675.803 1421.21 684.221 1412.44 686.365 1404.92 C 686.568 1401.68 686.596 1397.24 687.057 1394.12 C 687.472 1391.32 691.929 1389.21 694.291 1386.49 L 692.316 1383.53 C 691.536 1380.13 693.251 1378.64 694.36 1374.7 C 703.593 1341.89 714.322 1297.66 741.775 1275.33 C 754.069 1266.49 761.984 1271.89 773.718 1274.29 C 798.993 1279.47 792.016 1232.62 800.599 1218.84 C 801.687 1217.1 808.978 1211.71 810.424 1210.59 C 814.79 1210.02 815.522 1212.33 818.778 1212.6 C 840.462 1214.4 831.241 1272.21 849.488 1268.04 C 853.765 1263.4 848.184 1233.4 850.323 1225.78 C 850.874 1223.82 852.101 1223.93 853.598 1222.31 C 863.047 1212.11 879.66 1224.43 890.547 1217.82 C 893.775 1215.86 894.118 1210.99 894.651 1207.34 L 894.861 1205.84 L 895.433 1205.92 C 897.178 1215.84 895.092 1223.43 895.518 1231.71 C 896.103 1243.09 894.988 1266.61 896.325 1276.63 C 897.361 1275.16 896.698 1266.51 896.973 1263.31 L 897.166 1261.29 C 896.774 1239.74 896.715 1218.19 896.99 1196.63 C 900.601 1204.88 900.388 1203.5 899.299 1212.24 L 900.336 1212.71 L 901.892 1209.43 C 903.508 1214.94 902.788 1217.44 903.782 1222.55 C 903.904 1216.35 903.968 1212.53 904.837 1206.36 C 909.923 1213.37 908.314 1228.36 907.697 1237.05 L 908.986 1238.25 C 912.243 1234.94 907.738 1231.2 911.225 1226.52 C 914.849 1225.32 930.694 1217.35 931.909 1214.06 C 929.638 1213.07 930.316 1213.56 928.72 1211.45 C 930.106 1206.72 941.528 1188.92 945.837 1187.23 C 955.073 1183.6 959.145 1174.28 967.233 1170.58 L 967.832 1171.15 C 965.846 1174.47 965.076 1175.77 964.046 1179.46 C 973.471 1167.59 971.754 1157.21 976.916 1153.25 L 978.219 1152.94 L 978.337 1151.98 C 977.038 1152.07 975.817 1152.07 974.563 1152.44 L 973.019 1150.11 C 973.33 1149.32 973.855 1147.67 974.443 1147.4 C 977.573 1145.99 979.699 1133.91 980.059 1133.56 C 980.366 1139.8 979.911 1144.83 979.462 1151.05 L 980.439 1151.74 L 981.98 1146.39 L 981.862 1144.24 C 983.875 1142.5 983.299 1143.28 984.534 1140.92 C 983.705 1131.11 988.061 1112.72 995.478 1106.05 L 997.937 1111.06 C 993.811 1124.26 992.384 1133.88 991.671 1147.81 C 992.027 1151.62 991.337 1151.42 993.457 1153.48 C 996.651 1152.97 996.811 1152.85 999.831 1151.61 C 999.456 1151.23 999.081 1150.84 998.707 1150.46 C 1013.17 1139.23 1017.58 1140.2 1032.73 1132.75 C 1048.71 1124.89 1070.07 1116.46 1085.25 1107.97 C 1107.71 1095.41 1126.7 1078.95 1149.86 1065.76 C 1160.82 1064.76 1166.28 1062.92 1176.51 1058.68 C 1177.66 1054.94 1179.02 1053.81 1180.41 1048.24 C 1193.36 1039.74 1203.35 1026.67 1214.96 1016.47 C 1232.21 1001.34 1292.14 955.706 1313.29 951.695 C 1319.88 950.444 1326.87 953.592 1333.56 953.384 C 1334.17 953.365 1334.77 953.329 1335.38 953.302 L 1339.5 951.702 z"/>
<path transform="translate(0,0)" fill="rgb(25,25,29)" d="M 1253.3 2048 L 1255.61 2045.22 C 1257.69 2044.7 1275.3 2044.79 1278.69 2044.71 C 1280.75 2042.73 1281.42 2041.17 1281.28 2038.27 C 1280.92 2031.16 1284.69 2023.34 1288 2017 L 1288.84 2015.4 L 1288.31 2014.32 C 1285.76 2017.92 1287.34 2016.98 1283.99 2018.34 C 1279.85 2015.92 1272.4 2006.76 1270.55 2002.47 C 1267.05 1994.36 1276.5 1987.36 1273.55 1977.99 C 1271.36 1969.98 1275.55 1961.73 1276.47 1953.78 C 1280.64 1917.77 1296.67 1884.55 1303.96 1849.03 C 1305.34 1842.33 1308.62 1835.66 1310.2 1829.15 C 1314.11 1813.05 1316.07 1796.37 1321.05 1780.58 C 1327.66 1760.71 1347.52 1738.95 1350.42 1718.45 C 1351.4 1711.52 1346.75 1689.42 1346.27 1680.93 C 1344.19 1643.45 1339.25 1605.89 1336.3 1568.42 C 1335.79 1561.98 1331.8 1542.19 1332.47 1537.52 C 1333.55 1540.35 1333.48 1540.46 1335.29 1542.84 L 1335.11 1540.38 C 1339.11 1533.15 1337.82 1525.47 1338.41 1517.45 C 1339.23 1506.44 1345.67 1491.16 1358.69 1492 C 1360.75 1490.97 1361.49 1470.22 1361.24 1467.01 C 1357.98 1425.41 1374.01 1385.99 1383.05 1346.13 C 1384.12 1341.4 1385.37 1332.91 1386.82 1329.05 C 1386.75 1332.16 1386.9 1333.92 1388.76 1336.62 C 1393.63 1343.7 1388.65 1350.05 1393.42 1357.63 C 1396.61 1359.17 1398.24 1360.9 1401.18 1361.16 C 1402.13 1359.32 1402.2 1353.4 1402.78 1350.15 L 1403.86 1349.68 C 1408.61 1358.41 1392.16 1434.93 1390.48 1449.91 C 1390.03 1453.89 1391.43 1462.63 1394.43 1465.38 C 1394.91 1465.83 1395.47 1466.19 1395.99 1466.59 L 1396.29 1471.43 C 1398.62 1468.89 1400.24 1467.08 1402.83 1464.84 C 1388.18 1492.33 1372.93 1523.65 1366.51 1554.34 C 1366.07 1556.44 1373.88 1565.13 1376.84 1565 C 1381.45 1559.32 1387.58 1546.58 1392.36 1539.25 C 1403.21 1522.65 1421.03 1507.97 1426.9 1489.34 C 1427.62 1487.02 1427.4 1486.73 1428.73 1485.05 C 1428.99 1489.42 1429.27 1487.25 1427.16 1491.66 C 1428.44 1494.37 1428.37 1493.51 1430.52 1495.56 L 1431.51 1496.52 C 1434.07 1496.41 1432.8 1496.4 1435.33 1496.54 C 1445.59 1506.54 1443.54 1509.49 1445.55 1522.78 C 1445.9 1525.1 1450.64 1538.13 1451.8 1540.64 L 1453.25 1535.99 L 1453.79 1536.17 C 1451.69 1550.5 1450.38 1562.67 1449.16 1577.13 C 1448.85 1571.78 1449 1567.3 1449.15 1561.99 L 1448.47 1562.58 C 1440.05 1597.22 1433.91 1632.22 1425.27 1666.8 C 1422.86 1676.46 1428.27 1694.23 1437.06 1699.32 C 1449.76 1701.46 1455.31 1683.26 1460.98 1675.34 C 1466.47 1668.61 1475.56 1656.51 1483.26 1652.36 C 1508.98 1638.53 1526.73 1677.04 1526.8 1697.32 C 1526.81 1698.03 1517.81 1717.59 1517.13 1718.46 L 1515.88 1720.01 L 1516.34 1721.61 C 1511.67 1724.99 1507.18 1727.7 1504.2 1732.74 C 1497.25 1737.18 1457.87 1762.3 1455.4 1765.67 C 1461.18 1764.4 1465.42 1760.93 1470.53 1760.03 C 1501.2 1754.63 1508.59 1765.95 1528.27 1784.47 C 1539.57 1785.78 1554.27 1785.87 1564.81 1789.53 C 1593 1799.3 1621.42 1809.26 1649.5 1819.32 C 1660.26 1823.17 1688.63 1835.38 1698.76 1836.03 L 1699.5 1837.32 C 1697.06 1841.88 1674.64 1851.61 1669.67 1852.87 C 1624.34 1864.34 1569.93 1853.19 1521.99 1852.4 C 1530.05 1850.62 1559.63 1853.81 1563.49 1852.49 C 1562.15 1851.5 1558.44 1848.61 1556.88 1848.62 C 1539.28 1848.65 1521.42 1847.66 1503.87 1848.76 C 1493.1 1849.44 1485.55 1856.72 1483.08 1867.01 L 1483.81 1869.35 C 1490.28 1871.19 1516 1868.4 1524.29 1868.19 C 1554.31 1867.42 1579.67 1871.3 1607.65 1882.13 C 1611.97 1883.8 1621.93 1886.92 1625.43 1889.72 C 1622.32 1888.59 1616.37 1885.92 1613.59 1886.32 C 1622.96 1889.88 1628.46 1895.88 1637.65 1899.96 C 1638.2 1900.21 1641.97 1905.29 1642.41 1905.89 C 1643.91 1905.83 1643.18 1905.96 1644.61 1905.5 C 1650.17 1907.79 1653.46 1909.98 1652.48 1916.58 C 1650.21 1919.57 1649.14 1920.41 1646.29 1922.93 C 1642.51 1921.37 1632.22 1915.62 1630.07 1915.15 C 1620.12 1912.98 1608.48 1911.36 1598.36 1909.6 C 1596.59 1910.93 1594.84 1912.36 1593.04 1913.63 C 1586.31 1918.35 1544.51 1933.38 1538.38 1932.08 C 1534.47 1931.26 1530.63 1928.41 1527.38 1926.18 C 1525.64 1924.98 1524.15 1924.16 1522.04 1923.75 C 1518.33 1923.04 1479.95 1917.6 1478.98 1917.84 C 1474.8 1918.84 1465.52 1925.85 1462.56 1925.2 C 1460.36 1928.34 1459.04 1929.35 1458.34 1932.88 C 1476.38 1933.96 1505.01 1938.54 1520.34 1938.38 L 1521.76 1939.23 C 1519.1 1940.06 1518.14 1939.89 1515.36 1939.93 C 1513.34 1941.51 1513.08 1941.63 1511.5 1943.61 C 1492.51 1942.15 1474.1 1944.68 1455.17 1947.9 C 1443.93 1949.81 1430.76 1964.94 1429.76 1977.46 C 1428.69 1990.81 1432.33 2006.22 1440.77 2016.81 C 1445.74 2023.04 1447.46 2030.94 1441.22 2036.42 C 1445.27 2038.07 1457.37 2036.14 1459.91 2037.54 C 1445.9 2038.05 1435.06 2037.94 1420.97 2036.73 C 1407.41 2035.56 1391.93 2033.27 1378.61 2034.02 C 1377.26 2037.36 1374.02 2044.83 1373.28 2048 L 1253.3 2048 z"/>

<path transform="translate(0,0)" fill="url(#Gradient30)" d="M 1176.51 1058.68 C 1184.51 1057.68 1195.64 1040.01 1199.84 1033.31 L 1200.8 1035.56 C 1198.69 1040.6 1194.15 1044.24 1190.59 1049.04 C 1161.54 1088.29 1106.31 1118.02 1061.14 1136.56 C 1055.4 1138.93 1049.62 1141.21 1043.8 1143.37 C 1031.41 1144.82 1010.54 1151.27 999.831 1151.61 C 999.456 1151.23 999.081 1150.84 998.707 1150.46 C 1013.17 1139.23 1017.58 1140.2 1032.73 1132.75 C 1048.71 1124.89 1070.07 1116.46 1085.25 1107.97 C 1107.71 1095.41 1126.7 1078.95 1149.86 1065.76 C 1160.82 1064.76 1166.28 1062.92 1176.51 1058.68 z"/>


<path transform="translate(0,0)" fill="rgb(160,155,155)" d="M 1423.77 1006.77 C 1428.05 1008.5 1432.33 1010.01 1436.23 1012.44 C 1444.27 1015.08 1450.86 1021.14 1457.84 1024.07 L 1459.15 1025.39 C 1452.61 1027.41 1416.93 1011.52 1411.16 1006.41 C 1415.77 1006.45 1415.93 1006.55 1420.23 1008.45 L 1423.77 1006.77 z"/>
<path transform="translate(0,0)" fill="rgb(195,184,180)" d="M 1423.77 1006.77 C 1428.05 1008.5 1432.33 1010.01 1436.23 1012.44 C 1430.69 1014.17 1425.96 1010.96 1420.23 1008.45 L 1423.77 1006.77 z"/>
<path transform="translate(0,0)" fill="rgb(195,184,180)" d="M 1401.99 992.575 C 1404.76 993.26 1407.73 993.547 1409.53 995.523 C 1412.68 1000.73 1418.54 1003.84 1423.77 1006.77 L 1420.23 1008.45 C 1415.93 1006.55 1415.77 1006.45 1411.16 1006.41 C 1406.16 1001.68 1399.92 998.666 1393.87 995.468 C 1396.57 994.468 1399.27 993.503 1401.99 992.575 z"/>


<path transform="translate(0,0)" fill="rgb(109,83,83)" d="M 1780.65 1647.87 C 1788.86 1661.94 1795.8 1673.46 1804.76 1687.14 C 1799.94 1685.5 1799.08 1684.72 1794.75 1681.81 C 1792.32 1676.23 1787.62 1669.14 1784.37 1662.03 L 1785.39 1663.53 C 1783.54 1656.77 1781.44 1654.9 1780.65 1647.87 z"/>



<path transform="translate(0,0)" fill="rgb(165,118,109)" d="M 1823.04 1888.73 C 1824.08 1895.89 1825.62 1901.41 1825.78 1908.76 C 1826.22 1928.47 1822.29 1948.28 1820.97 1967.77 C 1818.84 1999.19 1813.31 2019.63 1799.63 2048 L 1742.93 2048 C 1751.9 2040.21 1769.27 2047.78 1780.27 2044.43 C 1786.03 2042.68 1787.27 2032.94 1793.15 2030.39 C 1795.03 2029.57 1795.63 2028.96 1796.46 2027.13 C 1795.56 2024.52 1794.77 2024.72 1792 2022.74 L 1791.99 2021.45 L 1794 2020.42 C 1797.04 2020.59 1799.21 2021.07 1801.87 2019.71 L 1802.51 2017.19 L 1802.72 2019.13 L 1802.92 2017.52 C 1801.05 2016.22 1801.18 2016.31 1800.36 2014.17 C 1800.77 2012.66 1801.13 2011.83 1802.37 2010.82 C 1803.38 2010.01 1804.63 2009.26 1805.53 2008.33 C 1808.81 2004.96 1818.84 1934.49 1820.29 1922.34 C 1821.62 1911.17 1822.32 1899.94 1823.04 1888.73 z"/>
<path transform="translate(0,0)" fill="rgb(54,63,77)" d="M 995.478 1106.05 L 997.937 1111.06 C 993.811 1124.26 992.384 1133.88 991.671 1147.81 L 991.233 1147.84 C 991.136 1152.02 991.24 1163.75 989.971 1166.96 C 990.453 1170.25 990.261 1173.15 992.022 1175.31 L 994.488 1174.65 L 994.556 1176.09 L 991.179 1177.44 C 989.821 1204.44 987.882 1242.58 988.661 1269.05 C 988.332 1266.14 988.106 1264.2 987.469 1261.29 C 984.716 1259.59 985.329 1260.2 981.229 1260.69 C 982.342 1254.14 981.37 1247.28 981.678 1240.36 C 982.642 1218.7 982.491 1197.04 982.565 1175.36 C 981.564 1174.15 980.557 1173.14 979.387 1172.1 C 981.217 1170.77 981.125 1170.86 983.248 1170.47 L 984.258 1167.9 C 982.925 1165.61 983.232 1166.84 983.327 1164.21 L 986.557 1163 L 986.643 1161.66 L 983.795 1161.04 C 981.448 1158.39 982.22 1151.17 981.98 1146.39 L 981.862 1144.24 C 983.875 1142.5 983.299 1143.28 984.534 1140.92 C 983.705 1131.11 988.061 1112.72 995.478 1106.05 z"/>

<path transform="translate(0,0)" fill="rgb(47,53,63)" d="M 896.99 1196.63 C 900.601 1204.88 900.388 1203.5 899.299 1212.24 L 900.336 1212.71 L 901.892 1209.43 C 903.508 1214.94 902.788 1217.44 903.782 1222.55 C 903.637 1260.86 902.875 1299.16 901.497 1337.45 L 899.512 1337.83 C 897.735 1334.9 900.9 1267.29 897.166 1261.29 C 896.774 1239.74 896.715 1218.19 896.99 1196.63 z"/>
<path transform="translate(0,0)" fill="rgb(37,43,55)" d="M 999.831 1151.61 C 1010.54 1151.27 1031.41 1144.82 1043.8 1143.37 C 1034.62 1151.92 1008.43 1160.24 994.488 1174.65 L 992.022 1175.31 C 990.261 1173.15 990.453 1170.25 989.971 1166.96 C 991.24 1163.75 991.136 1152.02 991.233 1147.84 L 991.671 1147.81 C 992.027 1151.62 991.337 1151.42 993.457 1153.48 C 996.651 1152.97 996.811 1152.85 999.831 1151.61 z"/>
<path transform="translate(0,0)" fill="rgb(47,53,63)" d="M 981.229 1260.69 C 985.329 1260.2 984.716 1259.59 987.469 1261.29 C 988.106 1264.2 988.332 1266.14 988.661 1269.05 C 988.623 1268.94 985.565 1331.47 985.575 1331.44 C 981.759 1332.8 983.515 1332.86 980.142 1332.11 L 980.223 1330.45 C 982.144 1328.27 983.194 1327.51 983.687 1324.65 C 975.226 1311.43 982.886 1310.67 983.134 1297.61 C 981.357 1295.16 980.85 1294.87 980.237 1291.88 C 982.386 1291.55 981.481 1291.92 983.024 1290.98 C 981.387 1277.53 980.832 1274.68 981.229 1260.69 z"/>


























<path transform="translate(0,0)" fill="rgb(47,53,63)" d="M 981.438 1333.15 C 984.244 1333.99 984.298 1333.75 986.037 1336.02 C 987.096 1339.29 986.299 1341.22 985.564 1344.61 L 983.255 1341.88 C 983.705 1337.21 983.771 1337.03 981.438 1333.15 z"/>






<path transform="translate(0,0)" fill="rgb(174,137,132)" d="M 1715.95 1405.77 C 1719.72 1409.55 1720.06 1411.06 1722.04 1416.1 L 1724.68 1416.52 C 1726.61 1423.96 1728.61 1431.45 1730.44 1438.91 C 1733.87 1447.73 1738.71 1469.79 1741.04 1479.53 C 1748.72 1511.53 1754.45 1543.22 1761.62 1575.48 L 1759.5 1574.33 C 1757.75 1577.69 1758.8 1583 1759.06 1587.34 C 1751.03 1565.19 1744.27 1527.77 1739.17 1503.94 L 1715.95 1405.77 z"/>
<path transform="translate(0,0)" fill="rgb(215,171,159)" d="M 1724.68 1416.52 C 1726.61 1423.96 1728.61 1431.45 1730.44 1438.91 C 1729.79 1438.79 1728.65 1438.2 1727.98 1437.9 C 1725.66 1432.31 1723.55 1422.33 1722.04 1416.1 L 1724.68 1416.52 z"/>





<path transform="translate(0,0)" fill="url(#Gradient28)" d="M 1759.06 1587.34 C 1758.8 1583 1757.75 1577.69 1759.5 1574.33 L 1761.62 1575.48 C 1767.86 1598.84 1770.87 1611.8 1780.54 1634.3 C 1790.14 1656.67 1815.28 1683.99 1816.31 1706.21 C 1815.85 1706.54 1815.38 1706.88 1814.91 1707.21 C 1813.62 1701.8 1813.49 1700.94 1809.96 1696.7 C 1808.28 1693.42 1806.57 1690.35 1804.76 1687.14 C 1795.8 1673.46 1788.86 1661.94 1780.65 1647.87 C 1780.3 1646.2 1773.48 1629.66 1772.25 1626.43 C 1767.38 1613.57 1762.98 1600.52 1759.06 1587.34 z"/>


<path transform="translate(0,0)" fill="rgb(212,162,147)" d="M 1809.96 1696.7 C 1813.49 1700.94 1813.62 1701.8 1814.91 1707.21 C 1815.38 1706.88 1815.85 1706.54 1816.31 1706.21 C 1818.5 1713.69 1814.31 1737.31 1814.04 1746.53 C 1813.74 1756.69 1813.54 1767.37 1813.45 1777.64 C 1813.08 1775.15 1812.56 1772.55 1812.2 1770.18 C 1810.46 1758.57 1813.8 1748.15 1812.46 1736.14 C 1807.46 1739.92 1808.94 1768.63 1809.56 1775.46 L 1808.25 1775.83 C 1805.29 1758.62 1807.82 1741.29 1811.23 1724.4 C 1812.52 1718.03 1813.6 1712.79 1812.56 1706.25 C 1811.94 1703.29 1810.81 1699.68 1809.96 1696.7 z"/>
















































<path transform="translate(0,0)" fill="url(#Gradient27)" d="M 1304.76 907.048 L 1305.13 902.993 C 1309.01 897.721 1308.1 899.179 1309.6 893.296 C 1310.83 902.346 1328.98 913.511 1334.86 921.717 C 1338.71 927.087 1341.24 929.871 1344.59 936.238 C 1350.26 954.485 1360.54 960.692 1376.77 969.261 C 1390.65 976.584 1404.7 983.596 1418.9 990.291 C 1424.66 987.115 1423.89 987.385 1428.71 991.1 C 1431.46 990.756 1431.09 990.236 1433.55 987.744 L 1433.9 979.598 C 1435.98 977.961 1435.46 977.335 1436.21 974 C 1435.77 980.204 1433.19 993.886 1442.15 994.795 L 1442.99 993.77 L 1447.67 994.053 L 1452.32 996.168 L 1455.75 995.693 L 1463.23 995.945 C 1466.22 997.204 1466.34 999.239 1468.48 1001.38 C 1467.98 1005.21 1467.86 1007 1467.83 1010.86 C 1475.38 1014.24 1484.94 1018.85 1492.52 1021.71 C 1526.63 1038.2 1548.21 1051.45 1571.88 1081.64 C 1578.65 1090.28 1585.7 1097.66 1592.48 1107.31 L 1588.44 1108.93 C 1585.21 1102.58 1548.24 1068.69 1539.57 1060.36 C 1518.63 1041.44 1492.1 1026.19 1465.9 1015.64 C 1453.32 1009.39 1423.55 999.932 1409.53 995.523 C 1407.73 993.547 1404.76 993.26 1401.99 992.575 C 1399.27 993.503 1396.57 994.468 1393.87 995.468 C 1390.75 994.07 1388.38 993.471 1386.53 990.692 L 1386.71 990.26 C 1383.37 984.403 1382.54 984.114 1377.51 979.347 C 1373.68 976.679 1365.67 976.118 1363.79 971.489 C 1365.79 970.638 1369.23 971.801 1371.89 972.284 C 1364.86 969.944 1347.82 958.835 1342.66 953.542 L 1339.5 951.702 L 1341.35 948.304 L 1342.42 947.561 L 1342.48 945.012 C 1338.2 933.47 1324.06 925.705 1315.16 918.04 C 1311.91 915.246 1307.68 910.355 1304.76 907.048 z"/>










<path transform="translate(0,0)" fill="rgb(218,205,197)" d="M 1588.44 1108.93 L 1592.48 1107.31 C 1599.67 1118.17 1605.99 1131.35 1611.89 1143.06 C 1620.09 1159.05 1627.93 1175.22 1635.38 1191.57 C 1648.97 1221.82 1654.1 1236.68 1670.5 1265.27 C 1669.47 1267.9 1669.48 1272.4 1669.88 1275.16 C 1665.44 1272.22 1665.13 1271.35 1662.84 1266.73 C 1659.91 1265.37 1657.63 1263.52 1655.01 1261.62 C 1650.11 1257.93 1645.08 1253.8 1642.75 1247.91 C 1637.21 1233.11 1631.37 1218.32 1625.94 1203.49 C 1620.62 1188.96 1609.77 1173.47 1610.66 1157.9 C 1607.57 1150.64 1588.95 1113.18 1588.44 1108.93 z"/>
<path transform="translate(0,0)" fill="rgb(89,79,86)" d="M 1610.66 1157.9 C 1626.96 1185.98 1649.69 1235.29 1662.84 1266.73 C 1659.91 1265.37 1657.63 1263.52 1655.01 1261.62 C 1650.11 1257.93 1645.08 1253.8 1642.75 1247.91 C 1637.21 1233.11 1631.37 1218.32 1625.94 1203.49 C 1620.62 1188.96 1609.77 1173.47 1610.66 1157.9 z"/>

<path transform="translate(0,0)" fill="url(#Gradient26)" d="M 1670.5 1265.27 C 1685.71 1284.03 1690.42 1309.86 1697.83 1332.43 C 1702.28 1345.99 1709.73 1361.6 1712.65 1375.32 C 1716.88 1388.37 1721.5 1403.17 1724.68 1416.52 L 1722.04 1416.1 C 1720.06 1411.06 1719.72 1409.55 1715.95 1405.77 C 1712.86 1393.68 1708.64 1378.45 1704.63 1366.77 C 1704.41 1365.01 1696.68 1343.81 1695.39 1340.93 C 1687.9 1324.19 1681.74 1287.32 1669.88 1275.16 C 1669.48 1272.4 1669.47 1267.9 1670.5 1265.27 z"/>
































































































































































































































<path transform="translate(0,0)" fill="rgb(25,25,29)" d="M 1005.19 126.309 C 1043.16 121.628 1058.54 128.277 1091.89 146.613 C 1106.74 154.775 1120.84 162.732 1134.23 173.582 C 1149.36 185.836 1168.1 200.356 1181.38 214.368 C 1208.12 242.57 1241.19 287.36 1255.84 322.988 C 1260.67 334.701 1264.98 346.622 1268.75 358.716 C 1269.92 362.578 1274.49 379.347 1275.58 381.763 L 1275.77 382.915 C 1278.02 395.994 1282.67 409.921 1285.35 423.155 C 1298.52 488.293 1316.98 551.115 1324.99 617.295 C 1327.92 641.566 1331.86 666.123 1330.29 690.833 C 1329.34 705.829 1324.01 721.537 1321.31 736.177 L 1319.7 742.64 C 1317.88 750.635 1313.7 764.614 1312.6 771.499 C 1311.75 776.758 1313.54 783.26 1312.03 792.456 C 1314.76 820.522 1311.78 864.952 1309.6 893.296 C 1308.1 899.179 1309.01 897.721 1305.13 902.993 L 1304.76 907.048 C 1307.68 910.355 1311.91 915.246 1315.16 918.04 C 1324.06 925.705 1338.2 933.47 1342.48 945.012 L 1342.42 947.561 L 1341.35 948.304 L 1339.5 951.702 L 1335.38 953.302 C 1334.77 953.329 1334.17 953.365 1333.56 953.384 C 1326.87 953.592 1319.88 950.444 1313.29 951.695 C 1292.14 955.706 1232.21 1001.34 1214.96 1016.47 C 1203.35 1026.67 1193.36 1039.74 1180.41 1048.24 C 1179.02 1053.81 1177.66 1054.94 1176.51 1058.68 C 1166.28 1062.92 1160.82 1064.76 1149.86 1065.76 C 1126.7 1078.95 1107.71 1095.41 1085.25 1107.97 C 1070.07 1116.46 1048.71 1124.89 1032.73 1132.75 C 1017.58 1140.2 1013.17 1139.23 998.707 1150.46 C 999.081 1150.84 999.456 1151.23 999.831 1151.61 C 996.811 1152.85 996.651 1152.97 993.457 1153.48 C 991.337 1151.42 992.027 1151.62 991.671 1147.81 C 992.384 1133.88 993.811 1124.26 997.937 1111.06 L 995.478 1106.05 C 988.061 1112.72 983.705 1131.11 984.534 1140.92 C 983.299 1143.28 983.875 1142.5 981.862 1144.24 L 981.98 1146.39 L 980.439 1151.74 L 979.462 1151.05 C 979.911 1144.83 980.366 1139.8 980.059 1133.56 C 979.699 1133.91 977.573 1145.99 974.443 1147.4 C 973.855 1147.67 973.33 1149.32 973.019 1150.11 L 974.563 1152.44 C 975.817 1152.07 977.038 1152.07 978.337 1151.98 L 978.219 1152.94 L 976.916 1153.25 C 971.754 1157.21 973.471 1167.59 964.046 1179.46 C 965.076 1175.77 965.846 1174.47 967.832 1171.15 L 967.233 1170.58 C 959.145 1174.28 955.073 1183.6 945.837 1187.23 C 941.528 1188.92 930.106 1206.72 928.72 1211.45 C 930.316 1213.56 929.638 1213.07 931.909 1214.06 C 930.694 1217.35 914.849 1225.32 911.225 1226.52 C 907.738 1231.2 912.243 1234.94 908.986 1238.25 L 907.697 1237.05 C 908.314 1228.36 909.923 1213.37 904.837 1206.36 C 903.968 1212.53 903.904 1216.35 903.782 1222.55 C 902.788 1217.44 903.508 1214.94 901.892 1209.43 L 900.336 1212.71 L 899.299 1212.24 C 900.388 1203.5 900.601 1204.88 896.99 1196.63 C 896.715 1218.19 896.774 1239.74 897.166 1261.29 L 896.973 1263.31 C 896.698 1266.51 897.361 1275.16 896.325 1276.63 C 894.988 1266.61 896.103 1243.09 895.518 1231.71 C 895.092 1223.43 897.178 1215.84 895.433 1205.92 L 894.861 1205.84 L 894.651 1207.34 C 894.118 1210.99 893.775 1215.86 890.547 1217.82 C 879.66 1224.43 863.047 1212.11 853.598 1222.31 C 852.101 1223.93 850.874 1223.82 850.323 1225.78 C 848.184 1233.4 853.765 1263.4 849.488 1268.04 C 831.241 1272.21 840.462 1214.4 818.778 1212.6 C 815.522 1212.33 814.79 1210.02 810.424 1210.59 C 808.978 1211.71 801.687 1217.1 800.599 1218.84 C 792.016 1232.62 798.993 1279.47 773.718 1274.29 C 761.984 1271.89 754.069 1266.49 741.775 1275.33 C 714.322 1297.66 703.593 1341.89 694.36 1374.7 C 693.251 1378.64 691.536 1380.13 692.316 1383.53 L 694.291 1386.49 C 691.929 1389.21 687.472 1391.32 687.057 1394.12 C 686.596 1397.24 686.568 1401.68 686.365 1404.92 C 684.221 1412.44 675.803 1421.21 676.528 1429.75 C 676.668 1431.39 675.923 1432.2 675.037 1433.81 L 675.405 1435.63 L 677.07 1435.87 C 677.648 1438.64 677.714 1437.3 676.809 1440.02 L 675.392 1439.61 C 673.35 1435.87 672.108 1432.96 669.704 1429.26 C 660.748 1415.49 662.991 1397.43 659.671 1382.16 C 655.92 1368.45 648.217 1358.01 649.419 1343.14 C 649.718 1339.44 642.25 1335.76 646.492 1328.38 C 648.571 1324.77 646.565 1313.67 647.012 1308.96 C 647.949 1299.07 643.415 1280.98 633.517 1276.6 C 623.834 1272.32 617.059 1303.14 617.166 1309.08 C 646.142 1469.79 651.724 1634.3 641.25 1797.14 C 637.15 1860.89 646.265 1941.81 604.936 1994.99 C 592.115 2011.49 575.93 2030.75 559.36 2043.1 C 555.37 2046.08 522.007 2044.9 514.743 2044.86 L 458.411 2045.02 L 458.228 2048 L 424.474 2048 L 383.503 2048 C 380.121 2039.76 379.49 2034.41 378.544 2025.75 C 379.448 2004.19 382.051 1976.98 401.19 1962.92 C 413.951 1943.98 417.623 1941.78 409.556 1919.64 C 396.86 1896.89 389.296 1886.98 386.327 1860.45 C 391.965 1845.21 401.618 1831.52 412.775 1819.81 C 417.436 1813.98 418.407 1812.17 421.822 1805.53 C 418.426 1791.06 413.855 1777.86 411.056 1763.11 C 408.268 1748.42 408.798 1738.31 408.313 1724.13 L 409.255 1720.14 C 410.793 1714.28 412.573 1709.56 414.659 1703.89 C 417.343 1699.16 418.799 1695.06 420.766 1690.03 L 417.423 1693.25 L 415.893 1692.33 L 416.242 1690.72 C 420.398 1686.55 431.811 1657.07 437.138 1647.18 C 440.839 1640.23 444.403 1633.38 448.537 1626.68 C 450.704 1620.32 463.125 1597.8 466.681 1591.16 C 468.661 1587.01 470.406 1582.79 472.205 1578.57 C 475.856 1572.37 486.737 1520.26 488.035 1510.74 C 488.816 1509.13 489.508 1504.2 489.87 1502.14 C 491.922 1490.04 493.851 1477.91 495.657 1465.77 L 496.736 1459.64 L 498.33 1450.54 C 500.48 1451.86 500.499 1451.65 501.991 1453.68 L 502.696 1453.21 C 508.256 1441.77 504.602 1426.02 509.247 1414.31 C 511.338 1409.03 510.957 1402.89 513.185 1397.99 C 513.373 1400.69 509.817 1442.64 509.17 1445.24 C 505.205 1461.2 497.765 1474.81 499.117 1493.01 C 499.213 1488.3 509.946 1463.89 511.558 1455.14 C 513.781 1443.07 513.599 1433.53 514.647 1421.41 C 514.982 1416.89 517.003 1414.12 520.787 1411.69 C 526.404 1408.08 523.289 1402.51 526.241 1397.19 L 528.173 1397.46 L 529.014 1396.55 L 526.694 1393.56 C 527.243 1389.91 527.187 1388.87 529.061 1385.6 L 529.721 1386.39 C 530.067 1391.99 530.403 1395.12 529.791 1400.75 C 528.971 1401.14 528.151 1401.54 527.331 1401.93 L 529.532 1405.65 L 530.484 1405.59 C 530.518 1398.57 532.083 1374.29 533.679 1367.77 L 534.738 1368.01 C 535.16 1372.74 535.597 1399.49 537.736 1401.11 C 544.456 1370.31 538.54 1330.7 540.906 1301.53 C 540.868 1288.29 542.511 1283.39 545.83 1270.18 C 545.3 1266.68 544.777 1262.98 543.796 1259.6 C 544.491 1256.08 544.847 1255.59 546.284 1252.38 C 548.654 1249.02 549.056 1248.68 550.168 1244.82 C 549.278 1242.3 549.329 1242.45 547.612 1240.38 L 546.375 1240.42 L 553.845 1239.66 C 557.513 1232.64 557.769 1231.71 559.6 1224.16 L 560.922 1219.99 C 562.272 1217.29 564.679 1210.62 565.901 1207.53 L 571.654 1192.4 C 583.399 1163.84 597.202 1153.17 620.937 1135.01 C 638.523 1121.58 656.592 1108.8 675.108 1096.68 C 701.28 1079.66 721.298 1069.28 744.766 1047.14 C 746.245 1046.13 752.097 1040.77 753.79 1039.29 C 759.169 1032.56 763.504 1030.06 770.622 1025.5 C 769.531 1013.43 764.13 1003.67 764.347 990.626 C 767.358 991.211 770.155 1004.61 771.927 1007.45 C 771.927 1007.45 775.258 1009.87 775.519 1010.06 C 775.102 1007.78 774.654 1005.5 774.175 1003.23 C 778.518 997.292 774.892 1004.91 780.03 1000.35 C 780.237 998.914 780.473 997.278 780.738 995.441 C 771.405 987.17 750.67 971.033 742.144 964.355 C 732.019 957.268 724.28 946.101 715.629 937.878 C 674.345 898.634 654.197 845.811 635.222 793.474 C 633.003 787.356 632.63 777.985 630.554 771.127 C 630.214 767.589 629.305 763.052 628.7 759.461 C 625.944 739.443 625.622 726.301 627.253 706.439 L 626.604 700.534 C 627.028 693.938 631.303 676.6 632.916 669.442 C 638.562 664.196 642.082 636.755 644.919 627.027 L 645.877 626.903 L 646.592 631.538 C 649.004 617.769 651.294 606.114 654.668 592.591 C 654.314 587.585 653.692 583.809 652.88 578.911 C 656.034 566.426 661.073 551.357 666.356 539.86 C 669.085 528.873 682.403 498.911 687.183 488.219 C 683.351 488.492 685.173 487.96 681.7 490.371 L 679.373 489.128 C 684.851 471.645 690.484 452.787 696.845 435.711 C 704.71 414.6 713.892 395.306 719.203 373.129 C 722.624 363.432 727.55 351.942 732.246 342.777 C 759.1 290.374 786.417 238.073 836.334 203.735 C 869.015 181.254 902.784 161.524 939.582 146.461 C 960.854 137.753 983.024 131.985 1005.19 126.309 z"/>
<path transform="translate(0,0)" fill="url(#Gradient24)" d="M 1005.19 126.309 C 1043.16 121.628 1058.54 128.277 1091.89 146.613 C 1106.74 154.775 1120.84 162.732 1134.23 173.582 C 1149.36 185.836 1168.1 200.356 1181.38 214.368 C 1208.12 242.57 1241.19 287.36 1255.84 322.988 C 1260.67 334.701 1264.98 346.622 1268.75 358.716 C 1269.92 362.578 1274.49 379.347 1275.58 381.763 L 1275.77 382.915 C 1278.02 395.994 1282.67 409.921 1285.35 423.155 C 1298.52 488.293 1316.98 551.115 1324.99 617.295 C 1327.92 641.566 1331.86 666.123 1330.29 690.833 C 1329.34 705.829 1324.01 721.537 1321.31 736.177 L 1319.7 742.64 C 1317.88 750.635 1313.7 764.614 1312.6 771.499 C 1311.75 776.758 1313.54 783.26 1312.03 792.456 C 1311.5 788.434 1311.65 782.818 1311.31 778.497 C 1310.1 780.991 1310.24 781.962 1308.32 782.748 C 1306.83 778.677 1310.14 781.444 1306.8 774.2 C 1300.37 796.281 1294.94 803.132 1287.23 822.756 C 1287.04 821.065 1286.73 817.595 1287.25 816.103 C 1294.33 795.967 1301.65 775.512 1307.66 755.028 C 1307.34 748.675 1307.55 745.356 1308.02 739.065 L 1310.78 737.792 C 1312.83 733.377 1313.11 730.08 1311.78 725.393 C 1311.6 721.812 1311.77 717.893 1311.85 714.272 C 1308.07 703.637 1310.5 677.007 1311.3 664.826 C 1310.27 665.969 1310.72 665.372 1310.65 667.52 C 1308.52 666.807 1306.14 650.371 1305.14 645.865 C 1300 622.574 1268.39 543.796 1255.6 528.212 C 1247.31 509.375 1243.08 497.275 1229.6 481.67 C 1224.26 473.395 1219.18 464.953 1214.37 456.358 C 1202.17 421.694 1155.82 383.43 1129.4 357.905 C 1119.48 348.313 1104.49 334.893 1093.38 327.285 C 1081.89 316.115 1069.32 309.333 1054.29 304.519 C 1037.07 299.028 1020.34 289.841 1001.49 287.335 L 994.81 287.076 C 991.392 285.652 962.637 279.339 956.978 279.309 C 963.217 279.342 949.551 280.306 952.918 280.121 L 950.908 280.222 C 947.123 272.719 943.603 279.549 936.655 280.053 C 930.471 280.501 925.394 278.515 918.91 278.535 L 918.775 277.734 C 930.912 271.98 931.456 261.109 929.937 249.381 C 934.978 248.71 940.152 248.503 945.238 248.198 C 938.208 243.158 933.795 247.326 929.642 242.49 L 930.78 241.604 L 931.761 237.156 L 931.641 235.998 L 935.6 231.371 L 935.458 230.566 C 931.631 233.116 930.143 233.71 925.86 235.573 C 934.671 224.02 967.07 221.701 971.355 212.037 C 975.569 197.977 976.967 198.469 980.513 180.89 L 981.647 176.796 C 982.006 174.513 982.393 172.235 982.81 169.962 L 984.256 166.872 L 985.935 166.621 C 987.047 161.251 1002.86 136.795 1007.05 132.643 C 1011.29 131.219 1014.21 129.188 1017.13 132.997 C 1017.23 137.353 1015.01 141.659 1013.34 145.845 L 1014.06 146.317 C 1023.57 140.224 1017.59 129.215 1024.57 129.417 C 1046.52 130.054 1069.12 142.838 1088.82 152.219 L 1090.19 151.447 C 1085.64 148.585 1077.01 144.567 1071.95 142.075 C 1046.93 129.742 1035.37 126.73 1008.21 129.936 C 1007.63 128.754 1006.11 127.309 1005.19 126.309 z"/>
<path transform="translate(0,0)" fill="url(#Gradient23)" d="M 1005.19 126.309 C 1043.16 121.628 1058.54 128.277 1091.89 146.613 C 1106.74 154.775 1120.84 162.732 1134.23 173.582 C 1149.36 185.836 1168.1 200.356 1181.38 214.368 C 1208.12 242.57 1241.19 287.36 1255.84 322.988 C 1260.67 334.701 1264.98 346.622 1268.75 358.716 C 1269.92 362.578 1274.49 379.347 1275.58 381.763 L 1275.77 382.915 C 1278.02 395.994 1282.67 409.921 1285.35 423.155 C 1298.52 488.293 1316.98 551.115 1324.99 617.295 C 1327.92 641.566 1331.86 666.123 1330.29 690.833 C 1329.34 705.829 1324.01 721.537 1321.31 736.177 L 1319.7 742.64 C 1317.88 750.635 1313.7 764.614 1312.6 771.499 C 1311.75 776.758 1313.54 783.26 1312.03 792.456 C 1311.5 788.434 1311.65 782.818 1311.31 778.497 C 1310.1 780.991 1310.24 781.962 1308.32 782.748 C 1306.83 778.677 1310.14 781.444 1306.8 774.2 C 1308.5 766.233 1312.3 757.182 1314.28 749.02 C 1319.65 726.854 1325.39 703.98 1326.08 681.124 C 1326.8 656.913 1321.96 632.51 1318.05 608.647 C 1308.99 555.93 1298.3 503.505 1286.02 451.444 C 1280.29 426.271 1270.5 378.196 1262.09 355.162 C 1233.01 275.58 1167.79 188.565 1090.19 151.447 C 1085.64 148.585 1077.01 144.567 1071.95 142.075 C 1046.93 129.742 1035.37 126.73 1008.21 129.936 C 1007.63 128.754 1006.11 127.309 1005.19 126.309 z"/>
<path transform="translate(0,0)" fill="rgb(67,83,102)" d="M 931.761 237.156 C 943.782 232.537 954.591 229.041 965.848 222.418 C 967.298 221.565 968.727 222.231 970.098 222.746 C 972.944 228.25 969.017 232.676 972.226 239.297 C 969.896 243.695 967.789 245.067 965.326 248.957 L 966.713 249.489 C 964.323 257.017 965.304 252.826 966.987 260.441 C 967.443 262.503 962.964 268.918 962.883 273.901 C 966.202 278.465 985.072 280.89 991.05 283.145 C 994.484 284.439 998.106 286.028 1001.49 287.335 L 994.81 287.076 C 991.392 285.652 962.637 279.339 956.978 279.309 C 963.217 279.342 949.551 280.306 952.918 280.121 L 950.908 280.222 C 947.123 272.719 943.603 279.549 936.655 280.053 C 930.471 280.501 925.394 278.515 918.91 278.535 L 918.775 277.734 C 930.912 271.98 931.456 261.109 929.937 249.381 C 934.978 248.71 940.152 248.503 945.238 248.198 C 938.208 243.158 933.795 247.326 929.642 242.49 L 930.78 241.604 L 931.761 237.156 z"/>





<path transform="translate(0,0)" fill="rgb(54,63,77)" d="M 985.935 166.621 L 988.198 166.158 C 989.798 163.492 989.866 163.298 990.854 160.34 L 992.655 159.4 C 992.641 162.185 992.292 162.088 991.084 164.879 C 996.718 166.016 1015.56 151.059 1022.3 149.982 C 1032.53 148.349 1047.04 155.837 1057.34 158.078 C 1060.21 158.742 1066.99 160.038 1068.04 160.809 L 1066.75 161.954 C 1055.08 158.805 1035.42 155.404 1026.27 151.778 C 1014.41 157.385 1002.25 162.811 990.484 168.485 L 998.605 168.566 L 999.472 169.569 C 995.697 170.396 991.778 170.254 987.882 170.411 C 982.055 184.511 991.839 187.828 982.31 204.29 L 988.187 203.877 C 986.699 204.945 985.234 206.043 983.792 207.172 C 979.702 208.321 974.041 211.631 971.355 212.037 C 975.569 197.977 976.967 198.469 980.513 180.89 L 981.647 176.796 C 982.006 174.513 982.393 172.235 982.81 169.962 L 984.256 166.872 L 985.935 166.621 z"/>

<path transform="translate(0,0)" fill="rgb(62,76,91)" d="M 971.355 212.037 C 974.041 211.631 979.702 208.321 983.792 207.172 C 980.938 211.916 976.293 214.408 974.691 218.568 L 975.764 219.767 C 980.147 219.819 981.636 219.516 986.023 218.775 L 986.427 219.462 C 980.305 221.377 977.771 221.367 971.546 224.304 L 970.957 225.391 C 976.37 226.539 980.747 224.65 987.019 225.08 C 982.96 225.666 979.87 225.697 976.482 227.916 C 972.597 236.119 979.333 234.28 969.395 248.37 L 966.713 249.489 L 965.326 248.957 C 967.789 245.067 969.896 243.695 972.226 239.297 C 969.017 232.676 972.944 228.25 970.098 222.746 C 968.727 222.231 967.298 221.565 965.848 222.418 C 954.591 229.041 943.782 232.537 931.761 237.156 L 931.641 235.998 L 935.6 231.371 L 935.458 230.566 C 931.631 233.116 930.143 233.71 925.86 235.573 C 934.671 224.02 967.07 221.701 971.355 212.037 z"/>




<path transform="translate(0,0)" fill="url(#Gradient22)" d="M 1005.19 126.309 C 1006.11 127.309 1007.63 128.754 1008.21 129.936 C 1035.37 126.73 1046.93 129.742 1071.95 142.075 C 1077.01 144.567 1085.64 148.585 1090.19 151.447 L 1088.82 152.219 C 1069.12 142.838 1046.52 130.054 1024.57 129.417 C 1017.59 129.215 1023.57 140.224 1014.06 146.317 L 1013.34 145.845 C 1015.01 141.659 1017.23 137.353 1017.13 132.997 C 1014.21 129.188 1011.29 131.219 1007.05 132.643 C 1002.86 136.795 987.047 161.251 985.935 166.621 L 984.256 166.872 L 982.81 169.962 C 982.393 172.235 982.006 174.513 981.647 176.796 L 980.513 180.89 C 976.967 198.469 975.569 197.977 971.355 212.037 C 967.07 221.701 934.671 224.02 925.86 235.573 C 930.143 233.71 931.631 233.116 935.458 230.566 L 935.6 231.371 L 931.641 235.998 L 931.761 237.156 L 930.78 241.604 L 929.642 242.49 C 933.795 247.326 938.208 243.158 945.238 248.198 C 940.152 248.503 934.978 248.71 929.937 249.381 C 931.456 261.109 930.912 271.98 918.775 277.734 L 918.91 278.535 C 925.394 278.515 930.471 280.501 936.655 280.053 C 943.603 279.549 947.123 272.719 950.908 280.222 L 949.853 281.18 C 907.098 281.867 885.725 296.928 851.238 317.447 C 849.756 319.594 845.927 324.466 844.931 326.188 C 810.637 346.415 776.143 385.641 751.768 416.892 C 748.26 421.389 728.466 446.77 725.844 449.212 C 721.542 458.214 713.833 466.794 708.708 475.552 C 701.465 487.927 695.298 500.873 688.684 513.592 C 678.61 535.442 669.763 558.504 664.923 582.085 C 664.266 585.284 662.387 588.733 661.66 592.061 C 660.389 597.882 660.003 604.269 658.525 609.99 C 656.737 616.911 646.997 639.059 645.958 644.309 C 646.109 639.962 646.266 635.889 646.592 631.538 C 649.004 617.769 651.294 606.114 654.668 592.591 C 654.314 587.585 653.692 583.809 652.88 578.911 C 656.034 566.426 661.073 551.357 666.356 539.86 C 669.085 528.873 682.403 498.911 687.183 488.219 C 683.351 488.492 685.173 487.96 681.7 490.371 L 679.373 489.128 C 684.851 471.645 690.484 452.787 696.845 435.711 C 704.71 414.6 713.892 395.306 719.203 373.129 C 722.624 363.432 727.55 351.942 732.246 342.777 C 759.1 290.374 786.417 238.073 836.334 203.735 C 869.015 181.254 902.784 161.524 939.582 146.461 C 960.854 137.753 983.024 131.985 1005.19 126.309 z"/>
<path transform="translate(0,0)" fill="rgb(125,158,175)" d="M 1005.19 126.309 C 1006.11 127.309 1007.63 128.754 1008.21 129.936 C 968.594 136.749 916.389 158.455 883.157 180.635 C 879.405 183.139 865.793 191.691 862.936 194.282 C 841.403 220.419 809.775 244.06 786.9 269.589 C 776.767 280.898 759.726 317.092 749.176 324.084 C 742.536 334.381 738.494 341.749 733.805 353.114 C 732.771 355.622 728.64 366.04 727.619 367.911 C 725.048 374.186 721.181 385.732 718.802 390.955 C 715.223 398.225 712.098 406.665 712.429 414.827 L 710.717 418.973 C 712.357 420.566 712.396 420.544 714.242 421.864 C 716.983 429.699 695.034 461.596 695.446 472.061 C 692.725 477.375 689.796 482.88 687.183 488.219 C 683.351 488.492 685.173 487.96 681.7 490.371 L 679.373 489.128 C 684.851 471.645 690.484 452.787 696.845 435.711 C 704.71 414.6 713.892 395.306 719.203 373.129 C 722.624 363.432 727.55 351.942 732.246 342.777 C 759.1 290.374 786.417 238.073 836.334 203.735 C 869.015 181.254 902.784 161.524 939.582 146.461 C 960.854 137.753 983.024 131.985 1005.19 126.309 z"/>
<path transform="translate(0,0)" fill="rgb(62,76,91)" d="M 749.176 324.084 C 750.085 315.246 759.979 301.529 764.689 293.769 C 790.583 251.107 821.566 221.653 862.936 194.282 C 841.403 220.419 809.775 244.06 786.9 269.589 C 776.767 280.898 759.726 317.092 749.176 324.084 z"/>
<path transform="translate(0,0)" fill="url(#Gradient21)" d="M 965.707 180.135 C 972.364 179.286 973.933 179.542 980.513 180.89 C 976.967 198.469 975.569 197.977 971.355 212.037 C 967.07 221.701 934.671 224.02 925.86 235.573 C 922.514 239.234 915.427 243.692 910.897 245.68 L 909.494 244.924 C 909.609 243.683 909.724 242.443 909.84 241.203 C 918.458 229.778 937.098 219.457 943.571 206.656 C 948.175 197.552 952.321 195.23 957.289 187.58 L 956.928 186.549 L 944.208 193.473 C 946.231 189.807 961.048 182.425 965.707 180.135 z"/>
<path transform="translate(0,0)" fill="rgb(73,93,113)" d="M 748.332 350.154 L 750.257 352.586 C 749.454 355.551 748.334 356.884 747.227 359.587 C 743.217 364.719 723.798 402.86 723.707 408.281 L 724.682 410.133 C 727.905 409.257 727.138 409.125 730.049 406.177 L 730.174 407.15 C 727.151 417.134 702.195 463.903 695.446 472.061 C 695.034 461.596 716.983 429.699 714.242 421.864 C 712.396 420.544 712.357 420.566 710.717 418.973 L 712.429 414.827 C 712.098 406.665 715.223 398.225 718.802 390.955 C 721.181 385.732 725.048 374.186 727.619 367.911 C 729.936 372.935 730.068 373.429 728.25 378.4 C 734.54 372.663 743.418 357.845 748.332 350.154 z"/>
<path transform="translate(0,0)" fill="rgb(119,140,158)" d="M 718.802 390.955 L 720.285 391.034 C 722.023 388.75 723.377 387.839 725.571 386.026 C 728.574 390.55 715.553 410.657 712.429 414.827 C 712.098 406.665 715.223 398.225 718.802 390.955 z"/>
<path transform="translate(0,0)" fill="rgb(37,43,55)" d="M 725.844 449.212 C 732.162 434.261 760.05 407.979 762.381 399.141 C 756.562 405.084 749.701 413.604 742.474 416.399 C 744.813 411.631 759.954 395.769 764.912 392.916 L 766.036 394.22 C 769.056 392.985 805.077 354.4 809.356 349.361 L 808.968 349.423 C 815.506 338.926 840.313 323.975 851.238 317.447 C 849.756 319.594 845.927 324.466 844.931 326.188 C 810.637 346.415 776.143 385.641 751.768 416.892 C 748.26 421.389 728.466 446.77 725.844 449.212 z"/>


<path transform="translate(0,0)" fill="rgb(47,53,63)" d="M 666.356 539.86 C 666.392 554.044 658.948 578.469 654.668 592.591 C 654.314 587.585 653.692 583.809 652.88 578.911 C 656.034 566.426 661.073 551.357 666.356 539.86 z"/>
<path transform="translate(0,0)" fill="rgb(62,76,91)" d="M 918.775 277.734 C 921.77 273.166 925.92 270.557 927.272 264.555 C 928.642 258.472 924.818 257.872 923.87 252.555 C 926.21 249.599 925.436 250.534 929.937 249.381 C 931.456 261.109 930.912 271.98 918.775 277.734 z"/>
<path transform="translate(0,0)" fill="rgb(62,76,91)" d="M 965.707 180.135 L 967.331 179.439 C 973.302 176.817 973.77 176.588 980.36 175.429 L 981.647 176.796 L 980.513 180.89 C 973.933 179.542 972.364 179.286 965.707 180.135 z"/>



<path transform="translate(0,0)" fill="rgb(62,76,91)" d="M 1254 889.5 C 1261.76 887.125 1277 879.329 1279.28 878.855 L 1278.71 880.738 C 1279.19 888.303 1283.33 889.994 1279.4 897.135 C 1295.13 892.761 1287.8 898.237 1298.65 900.886 C 1300.7 902.922 1302.74 904.976 1304.76 907.048 C 1307.68 910.355 1311.91 915.246 1315.16 918.04 C 1324.06 925.705 1338.2 933.47 1342.48 945.012 C 1336.87 942.259 1333.18 936.729 1329.64 935.339 C 1330.35 937.15 1331 938.689 1331.54 940.564 L 1329.96 941.684 L 1331.3 941.74 L 1328.78 941.203 L 1331.29 939.85 L 1328.35 941.022 C 1303.23 928.569 1275.14 950.445 1253.38 960.996 C 1243.49 965.788 1234.66 970.66 1225.39 976.558 C 1223.71 977.374 1222.12 978.128 1220.23 978.103 C 1206.46 977.925 1199.46 992.779 1184.73 993.982 C 1182.41 994.171 1178.99 994.955 1177.48 993.741 C 1181.64 991.344 1183.16 991.149 1187.9 989.877 L 1187.8 988.585 C 1186.44 986.443 1182.67 980.09 1180.6 979.522 C 1174.38 977.823 1175.32 970.661 1172.46 968.769 C 1162.03 979.789 1148.28 991.898 1136.95 1003.46 L 1135.92 1003.44 C 1143.81 992.789 1164.99 974.126 1175.53 963.764 L 1215.89 924.237 C 1227.27 912.95 1240.91 897.755 1254 889.5 z"/>

<path transform="translate(0,0)" fill="rgb(54,63,77)" d="M 1255.6 528.212 C 1268.39 543.796 1300 622.574 1305.14 645.865 C 1306.14 650.371 1308.52 666.807 1310.65 667.52 C 1310.72 665.372 1310.27 665.969 1311.3 664.826 C 1310.5 677.007 1308.07 703.637 1311.85 714.272 C 1311.77 717.893 1311.6 721.812 1311.78 725.393 C 1298.82 764.262 1284.65 771.559 1262.49 801.517 L 1260.96 801.077 C 1263.16 798.219 1267.94 792.643 1269.55 789.853 C 1272.59 784.594 1275.78 782.616 1279.7 777.542 L 1279.41 776.366 C 1275.94 780.304 1271.81 781.225 1269.51 783.652 C 1265.29 788.115 1259.43 794.057 1255.4 798.493 C 1250.53 803.865 1245.42 802.147 1240.65 803.464 C 1241.06 803.351 1229.43 812.837 1228.45 813.623 C 1210.38 828.058 1191.91 843.028 1174.47 858.192 C 1167.49 864.255 1156.78 877.69 1149.87 884.919 C 1140.45 894.767 1130.92 904.368 1120.82 913.539 C 1117.6 916.467 1107.13 926.429 1103.58 927.656 C 1096.25 930.185 1086.78 943.327 1081.11 944.786 C 1089.87 934.085 1097.41 929.995 1107.84 921.586 C 1113.27 917.353 1117.96 912.064 1123.06 907.518 C 1141.32 891.647 1155.84 872.048 1173.2 855.494 C 1191.45 838.103 1213.16 823.278 1232.38 806.97 C 1238.23 802.005 1243.73 795.652 1249.23 790.252 C 1257.27 782.35 1265.1 774.069 1273.44 766.486 C 1299.87 739.325 1305 692.736 1297.4 657.459 C 1294.96 646.134 1289.76 633.527 1286.71 621.996 C 1283.12 613.736 1279.4 605.569 1276.52 597.031 C 1275.41 581.888 1271.89 578.452 1268.21 564.672 L 1267.99 563.804 C 1265.56 557.264 1261.19 549.817 1259.14 542.673 C 1257.74 537.805 1256.92 533.196 1255.6 528.212 z"/>
<path transform="translate(0,0)" fill="rgb(47,53,63)" d="M 1267.99 563.804 L 1268.45 562.099 C 1266.51 558.212 1264.79 556.463 1265.26 552.732 C 1273.12 564.429 1277.97 576.662 1283.52 589.547 C 1301.26 630.786 1317.55 677.169 1303.7 722.074 L 1303.22 723.984 C 1302.76 725.847 1302.73 727.528 1302.48 729.04 C 1301.03 737.841 1285.53 768.159 1276.78 768.752 C 1274.85 767.702 1274.94 767.977 1273.44 766.486 C 1299.87 739.325 1305 692.736 1297.4 657.459 C 1294.96 646.134 1289.76 633.527 1286.71 621.996 C 1283.12 613.736 1279.4 605.569 1276.52 597.031 C 1275.41 581.888 1271.89 578.452 1268.21 564.672 L 1267.99 563.804 z"/>
<path transform="translate(0,0)" fill="rgb(26,39,51)" d="M 1286.71 621.996 C 1293.78 627.141 1301.9 675.867 1301.63 675.627 C 1303.24 657.519 1294.95 646.039 1294.28 632.235 C 1296.46 635.494 1297.86 642.284 1298.83 646.254 C 1302.82 663.029 1304.78 680.223 1304.66 697.465 C 1304.55 705.448 1303.39 714.366 1303.7 722.074 L 1303.22 723.984 C 1302.76 725.847 1302.73 727.528 1302.48 729.04 C 1301.03 737.841 1285.53 768.159 1276.78 768.752 C 1274.85 767.702 1274.94 767.977 1273.44 766.486 C 1299.87 739.325 1305 692.736 1297.4 657.459 C 1294.96 646.134 1289.76 633.527 1286.71 621.996 z"/>

<path transform="translate(0,0)" fill="url(#Gradient19)" d="M 410.166 1967.85 C 412.993 1963.87 424.725 1951.66 429.635 1955.33 L 429.792 1957.28 L 428.459 1957.44 C 425.004 1957.9 423.33 1957.74 420.686 1959.95 L 420.304 1961.73 L 424.413 1964.62 L 424.16 1965.99 L 420.712 1965.13 C 420.72 1968.17 420.51 1968.73 421.617 1971.6 C 423.511 1971.13 422.578 1971.62 424.182 1969.77 C 425.809 1976.83 419.349 1983.37 422.739 1984.86 C 423.5 1985.19 423.515 1985.27 424.654 1986.41 C 423.204 1987.71 424.065 1987.38 422.039 1987.32 C 408.519 1992.03 402.799 2006.57 394.151 2013.52 C 391.586 2026.55 387.905 2028.54 403.577 2033.41 C 411.791 2036.38 418.702 2041.49 424.474 2048 L 383.503 2048 C 380.121 2039.76 379.49 2034.41 378.544 2025.75 C 379.448 2004.19 382.051 1976.98 401.19 1962.92 L 401.398 1965.21 C 398.43 1968.74 398.575 1967.45 398.69 1971.04 C 402.324 1971.24 401.378 1968.39 402.566 1969.31 C 401.331 1975.37 397.969 1977.28 398.227 1981.58 C 404.926 1980.96 408.851 1973.74 410.166 1967.85 z"/>
<path transform="translate(0,0)" fill="url(#Gradient18)" d="M 502.696 1453.21 C 508.256 1441.77 504.602 1426.02 509.247 1414.31 C 511.338 1409.03 510.957 1402.89 513.185 1397.99 C 513.373 1400.69 509.817 1442.64 509.17 1445.24 C 505.205 1461.2 497.765 1474.81 499.117 1493.01 C 498.013 1521.13 503.077 1543.09 507.08 1570.57 C 506.623 1574.84 506.338 1578.17 506.209 1582.46 C 505.981 1590.11 511.597 1609.01 507.996 1614.58 L 505.848 1615.42 L 504.857 1608.61 C 504.953 1606.92 501.025 1583.16 500.689 1582.27 C 496.477 1571.04 497.502 1532.6 493.268 1525.22 C 490.25 1540.66 485.351 1565.97 479.56 1580.34 C 477.935 1580.69 476.307 1581.03 474.676 1581.35 L 472.205 1578.57 C 475.856 1572.37 486.737 1520.26 488.035 1510.74 C 488.816 1509.13 489.508 1504.2 489.87 1502.14 C 491.922 1490.04 493.851 1477.91 495.657 1465.77 L 496.736 1459.64 L 498.33 1450.54 C 500.48 1451.86 500.499 1451.65 501.991 1453.68 L 502.696 1453.21 z"/>



<path transform="translate(0,0)" fill="rgb(62,76,91)" d="M 493.268 1525.22 C 497.502 1532.6 496.477 1571.04 500.689 1582.27 C 501.025 1583.16 504.953 1606.92 504.857 1608.61 C 503.166 1601.56 495.29 1578.3 495.074 1573.55 L 496.897 1573.69 C 496.463 1568.53 492.835 1570.09 491.113 1564.43 C 489.975 1565.59 490.344 1564.85 490.228 1566.52 C 489.954 1570.48 477.3 1608.83 474.942 1612.91 C 467.724 1625.42 461.474 1637.25 448.728 1644.67 C 446.843 1645.77 448.196 1645.42 446.653 1646.52 C 446.225 1646.83 445.728 1647.03 445.266 1647.28 L 450.905 1637.58 L 447.216 1638.97 L 446.512 1638.29 L 447.257 1636.53 C 449.427 1631.36 450.244 1630.81 448.537 1626.68 C 450.704 1620.32 463.125 1597.8 466.681 1591.16 C 468.661 1587.01 470.406 1582.79 472.205 1578.57 L 474.676 1581.35 C 476.307 1581.03 477.935 1580.69 479.56 1580.34 C 485.351 1565.97 490.25 1540.66 493.268 1525.22 z"/>



<path transform="translate(0,0)" fill="rgb(81,60,59)" d="M 412.775 1819.81 L 418.443 1819.53 C 408.602 1824.1 407.012 1831.13 400.74 1838.48 C 388.402 1852.93 386.441 1868.05 394.347 1885.64 C 396.068 1885.36 396.257 1885.14 397.94 1885.59 C 401.316 1893.49 407.717 1910.31 414.543 1914.97 C 421.833 1919.95 424.723 1917.64 426.586 1927 L 428.872 1929.38 L 430.284 1929.4 L 429.881 1929.83 L 429.891 1928.76 C 426.104 1922.04 432.777 1916.7 431.463 1911 C 428.49 1908.35 422.946 1905.16 422.048 1904.3 C 414.738 1897.3 397.713 1877.07 396.203 1867.42 C 399.441 1858.13 422.869 1844.39 429.843 1846.42 C 423.05 1849.85 408.23 1854.93 403.328 1860.58 C 389.243 1876.82 425.694 1900.47 433.935 1910.3 C 434.869 1911.41 428.654 1932.44 435.155 1935.79 C 437.957 1935.02 446.776 1929.15 452.351 1927.11 L 452.636 1927.83 C 447.915 1931.26 436.655 1936.9 431.082 1938.91 C 422.6 1941.96 418.558 1951.88 413.472 1955.84 C 412.158 1960.91 411.432 1961.76 408.703 1966.39 L 409.126 1967.66 L 410.166 1967.85 C 408.851 1973.74 404.926 1980.96 398.227 1981.58 C 397.969 1977.28 401.331 1975.37 402.566 1969.31 C 401.378 1968.39 402.324 1971.24 398.69 1971.04 C 398.575 1967.45 398.43 1968.74 401.398 1965.21 L 401.19 1962.92 C 413.951 1943.98 417.623 1941.78 409.556 1919.64 C 396.86 1896.89 389.296 1886.98 386.327 1860.45 C 391.965 1845.21 401.618 1831.52 412.775 1819.81 z"/>
<path transform="translate(0,0)" fill="rgb(95,64,63)" d="M 409.556 1919.64 C 416.145 1923.27 412.798 1923.88 417.481 1927.92 C 419.285 1929.48 423.13 1928.89 425.568 1931.84 C 423.4 1936.83 413.436 1953.21 413.472 1955.84 C 412.158 1960.91 411.432 1961.76 408.703 1966.39 L 409.126 1967.66 L 410.166 1967.85 C 408.851 1973.74 404.926 1980.96 398.227 1981.58 C 397.969 1977.28 401.331 1975.37 402.566 1969.31 C 401.378 1968.39 402.324 1971.24 398.69 1971.04 C 398.575 1967.45 398.43 1968.74 401.398 1965.21 L 401.19 1962.92 C 413.951 1943.98 417.623 1941.78 409.556 1919.64 z"/>
<path transform="translate(0,0)" fill="rgb(195,184,180)" d="M 1306.8 774.2 C 1310.14 781.444 1306.83 778.677 1308.32 782.748 C 1310.24 781.962 1310.1 780.991 1311.31 778.497 C 1311.65 782.818 1311.5 788.434 1312.03 792.456 C 1314.76 820.522 1311.78 864.952 1309.6 893.296 C 1308.1 899.179 1309.01 897.721 1305.13 902.993 L 1304.76 907.048 C 1302.74 904.976 1300.7 902.922 1298.65 900.886 L 1291.33 892.134 C 1295.34 893.527 1293.35 893.452 1297.52 892.248 L 1298.32 890.652 C 1297.78 886.691 1297.26 887.381 1293.76 883.773 C 1311.24 871.539 1305.06 828.298 1305.87 809.629 C 1306 806.509 1306.39 799.278 1305.44 796.77 L 1303.98 796.549 C 1301.95 799.635 1301.8 800.502 1300.69 803.912 C 1297.06 811.307 1292.8 818.379 1287.97 825.053 L 1287.23 822.756 C 1294.94 803.132 1300.37 796.281 1306.8 774.2 z"/>
<path transform="translate(0,0)" fill="rgb(62,76,91)" d="M 589.191 1171.85 C 589.932 1170.81 590.699 1169.79 591.493 1168.8 C 604.333 1152.47 630.854 1141.03 647.415 1128.31 C 663.347 1116.08 686.918 1092.37 707.602 1089.87 C 701.44 1096.97 698.54 1100.52 693.216 1108.13 C 688.187 1115.31 678.863 1130.87 673.146 1136.37 C 675.722 1129.33 686.003 1112.51 683.974 1107.16 C 675.078 1107.88 627.148 1161.18 609.983 1162.42 C 607.459 1162.6 591.734 1171.32 589.191 1171.85 z"/>

<path transform="translate(0,0)" fill="rgb(67,83,102)" d="M 1300.69 803.912 C 1301.8 800.502 1301.95 799.635 1303.98 796.549 L 1305.44 796.77 C 1306.39 799.278 1306 806.509 1305.87 809.629 C 1305.06 828.298 1311.24 871.539 1293.76 883.773 C 1297.26 887.381 1297.78 886.691 1298.32 890.652 L 1297.52 892.248 C 1293.35 893.452 1295.34 893.527 1291.33 892.134 L 1298.65 900.886 C 1287.8 898.237 1295.13 892.761 1279.4 897.135 C 1283.33 889.994 1279.19 888.303 1278.71 880.738 L 1279.28 878.855 C 1277 879.329 1261.76 887.125 1254 889.5 C 1256.13 885.408 1263.68 875.597 1266.86 872.4 C 1265.6 877.338 1260.84 881.693 1257.31 885.643 L 1257.97 886.344 C 1266.86 885.082 1277.22 876.823 1285.53 872.928 C 1290.72 870.495 1296.78 852.32 1297.9 845.882 C 1299.69 835.67 1303.68 817.853 1302.97 807.578 C 1302.06 806.112 1301.3 804.89 1300.69 803.912 z"/>

<path transform="translate(0,0)" fill="rgb(47,53,63)" d="M 1287.97 825.053 C 1287.11 829.011 1284.42 833.626 1279.97 833.7 C 1271.09 823.626 1288.06 775.596 1295.03 763.966 C 1299.89 755.873 1303.96 747.746 1308.02 739.065 C 1307.55 745.356 1307.34 748.675 1307.66 755.028 C 1301.65 775.512 1294.33 795.967 1287.25 816.103 C 1286.73 817.595 1287.04 821.065 1287.23 822.756 L 1287.97 825.053 z"/>
<path transform="translate(0,0)" fill="rgb(89,79,86)" d="M 408.313 1724.13 L 409.255 1720.14 C 413.073 1727.65 408.242 1735.6 410.905 1738.84 C 413.601 1742.13 418.058 1755.41 419.252 1756.59 C 426.332 1763.6 450.466 1785.88 450.331 1795.7 C 445.247 1792.41 436.34 1771.02 423.211 1766.22 C 427.126 1775.16 429.614 1797.6 424.253 1806.32 L 420.331 1812.67 L 420.832 1813.56 C 422.372 1811.94 423.461 1810.85 424.837 1809.08 L 425.732 1809.36 C 424.067 1814.43 423.21 1816.94 418.443 1819.53 L 412.775 1819.81 C 417.436 1813.98 418.407 1812.17 421.822 1805.53 C 418.426 1791.06 413.855 1777.86 411.056 1763.11 C 408.268 1748.42 408.798 1738.31 408.313 1724.13 z"/>
<path transform="translate(0,0)" fill="rgb(54,63,77)" d="M 894.456 1172.64 C 891.926 1161.13 891.397 1147.97 888.727 1136.4 C 885.421 1122.2 881.828 1107.99 876.582 1094.36 C 875.696 1092.05 877.349 1089.72 878.411 1087.78 C 877.038 1084.88 878.081 1085.6 875.804 1084.69 C 872.124 1086.12 870.671 1089.95 867.279 1093.34 C 867.196 1080.12 881.211 1078.27 885.562 1093.7 C 885.096 1102.04 889.86 1114.87 893.291 1122.5 C 894.277 1126.4 895.464 1130.58 896.018 1134.53 C 897.972 1144.75 899.852 1154.98 901.66 1165.23 L 902.231 1169.66 L 902.259 1173.05 C 900.337 1176.87 899.624 1176.61 895.133 1175.68 L 894.456 1172.64 z"/>


<path transform="translate(0,0)" fill="rgb(37,43,55)" d="M 1229.6 481.67 C 1243.08 497.275 1247.31 509.375 1255.6 528.212 C 1256.92 533.196 1257.74 537.805 1259.14 542.673 C 1261.19 549.817 1265.56 557.264 1267.99 563.804 L 1268.21 564.672 C 1271.89 578.452 1275.41 581.888 1276.52 597.031 C 1266.15 573.292 1250.87 536.936 1239.77 515.067 C 1239.28 513.163 1239.12 511.533 1238.86 509.593 L 1239.32 509.723 C 1238.6 503.585 1231.45 493.317 1229.6 481.67 z"/>
<path transform="translate(0,0)" fill="rgb(125,158,175)" d="M 770.622 1025.5 C 769.531 1013.43 764.13 1003.67 764.347 990.626 C 767.358 991.211 770.155 1004.61 771.927 1007.45 C 771.927 1007.45 775.258 1009.87 775.519 1010.06 C 775.822 1011.01 777.121 1014.73 777.31 1015.22 C 779.034 1019.68 776.159 1037.31 774.531 1041.52 L 773.16 1042.82 L 770.596 1040.72 C 766.806 1045.87 771.471 1053.63 768.846 1057.94 C 764.943 1057.2 762.009 1053.23 759.247 1050.23 C 754.031 1055.05 752.094 1057.09 745.939 1060.66 C 748.445 1051.51 755.887 1050.99 757.837 1043.03 C 756.573 1039.9 757.558 1041.35 753.79 1039.29 C 759.169 1032.56 763.504 1030.06 770.622 1025.5 z"/>

<path transform="translate(0,0)" fill="rgb(95,64,63)" d="M 394.151 2013.52 C 402.799 2006.57 408.519 1992.03 422.039 1987.32 L 421.455 1987.99 C 417.9 1991.97 407.844 2001.55 403.439 2004.3 C 403.467 2006.08 403.501 2008.29 403.543 2010.94 C 401.434 2014.14 398.667 2014.71 399.916 2018.68 C 405.505 2022.28 409.812 2022.02 414.167 2025.87 L 414.468 2027.34 C 409.704 2028.72 413.962 2025.1 408.603 2026.25 C 407.745 2029.19 408.276 2029.94 409.04 2032.95 C 413.819 2036.54 419.546 2040.54 423.762 2044.65 C 435.283 2044.76 446.902 2044.78 458.411 2045.02 L 458.228 2048 L 424.474 2048 C 418.702 2041.49 411.791 2036.38 403.577 2033.41 C 387.905 2028.54 391.586 2026.55 394.151 2013.52 z"/>
<path transform="translate(0,0)" fill="rgb(47,53,63)" d="M 566.057 1226.8 C 566.223 1234.73 567.096 1251.5 565.086 1258.33 C 561.798 1261.67 556.44 1264.09 554.977 1265.61 C 549.982 1270.78 546.812 1288.95 545.212 1296.02 C 545.315 1292.7 545.929 1291.8 544.527 1289.4 C 542.777 1294.8 543.421 1296.13 540.906 1301.53 C 540.868 1288.29 542.511 1283.39 545.83 1270.18 C 555.136 1250.19 560.628 1252.62 566.057 1226.8 z"/>
<path transform="translate(0,0)" fill="rgb(26,39,51)" d="M 632.916 669.442 C 638.562 664.196 642.082 636.755 644.919 627.027 L 645.877 626.903 L 646.592 631.538 C 646.266 635.889 646.109 639.962 645.958 644.309 C 640.075 662.734 636.205 681.122 632.074 699.99 C 630.225 708.436 628.895 709.484 628.297 718.487 C 628.164 714.6 628.088 710.193 627.253 706.439 L 626.604 700.534 C 627.028 693.938 631.303 676.6 632.916 669.442 z"/>


<path transform="translate(0,0)" fill="rgb(54,63,77)" d="M 902.259 1173.05 C 903.548 1179.03 904.568 1199.46 904.837 1206.36 C 903.968 1212.53 903.904 1216.35 903.782 1222.55 C 902.788 1217.44 903.508 1214.94 901.892 1209.43 L 900.336 1212.71 L 899.299 1212.24 C 900.388 1203.5 900.601 1204.88 896.99 1196.63 C 896.632 1189.66 895.238 1183.38 895.133 1175.68 C 899.624 1176.61 900.337 1176.87 902.259 1173.05 z"/>

<path transform="translate(0,0)" fill="rgb(47,53,63)" d="M 507.08 1570.57 C 508.926 1577.31 512.991 1596.73 512.057 1603.23 L 510.141 1593.66 C 510.888 1604.83 511.17 1628.95 514.653 1638.37 L 513.593 1640.35 C 508.574 1635.89 508.942 1621.26 505.848 1615.42 L 507.996 1614.58 C 511.597 1609.01 505.981 1590.11 506.209 1582.46 C 506.338 1578.17 506.623 1574.84 507.08 1570.57 z"/>
<path transform="translate(0,0)" fill="rgb(47,53,63)" d="M 991.898 1090.69 L 992.631 1089.87 C 996.341 1085.64 1000.47 1077.09 1004.45 1076.48 C 1004.78 1080.81 999.551 1106.45 997.937 1111.06 L 995.478 1106.05 C 997.063 1103.72 998.867 1096.67 996.612 1094.41 L 994.329 1095.69 C 992.748 1093.52 992.904 1093.3 991.898 1090.69 z"/>
<path transform="translate(0,0)" fill="rgb(37,43,55)" d="M 994.329 1095.69 L 996.612 1094.41 C 998.867 1096.67 997.063 1103.72 995.478 1106.05 C 988.061 1112.72 983.705 1131.11 984.534 1140.92 C 983.299 1143.28 983.875 1142.5 981.862 1144.24 C 981.885 1135.78 982.267 1122.04 985.683 1114.22 C 987.972 1111.58 989.266 1102.91 993.066 1099.68 C 994.913 1098.12 994.299 1098.56 994.329 1095.69 z"/>
<path transform="translate(0,0)" fill="rgb(47,53,63)" d="M 1180.41 1048.24 C 1179.02 1053.81 1177.66 1054.94 1176.51 1058.68 C 1166.28 1062.92 1160.82 1064.76 1149.86 1065.76 C 1160.38 1059.26 1169.63 1055.64 1180.41 1048.24 z"/>
<path transform="translate(0,0)" fill="rgb(26,39,51)" d="M 885.562 1093.7 C 890.536 1100.72 896.296 1114.07 893.291 1122.5 C 889.86 1114.87 885.096 1102.04 885.562 1093.7 z"/>
<path transform="translate(0,0)" fill="rgb(26,39,51)" d="M 985.683 1114.22 C 987 1106.78 987.131 1096.27 991.898 1090.69 C 992.904 1093.3 992.748 1093.52 994.329 1095.69 C 994.299 1098.56 994.913 1098.12 993.066 1099.68 C 989.266 1102.91 987.972 1111.58 985.683 1114.22 z"/>




































































































































































































































































































<path transform="translate(0,0)" fill="rgb(95,121,142)" d="M 679.373 489.128 L 681.7 490.371 C 685.173 487.96 683.351 488.492 687.183 488.219 C 682.403 498.911 669.085 528.873 666.356 539.86 C 661.073 551.357 656.034 566.426 652.88 578.911 C 653.692 583.809 654.314 587.585 654.668 592.591 C 651.294 606.114 649.004 617.769 646.592 631.538 L 645.877 626.903 L 644.919 627.027 C 642.082 636.755 638.562 664.196 632.916 669.442 C 631.303 676.6 627.028 693.938 626.604 700.534 L 625.936 699.952 C 624.177 694.548 631.253 665.91 632.801 658.907 C 645.643 600.802 655.418 544.196 679.373 489.128 z"/>
<path transform="translate(0,0)" fill="rgb(47,53,63)" d="M 652.88 578.911 C 653.692 583.809 654.314 587.585 654.668 592.591 C 651.294 606.114 649.004 617.769 646.592 631.538 L 645.877 626.903 L 644.919 627.027 C 642.082 636.755 638.562 664.196 632.916 669.442 C 640.273 640.115 646.23 608.677 652.88 578.911 z"/>



























































































































































































































</svg>